<mxfile host="65bd71144e" pages="2">
    <diagram id="_1e6eq4gqQpixzHqWoPJ" name="Flæði">
        <mxGraphModel dx="1309" dy="349" grid="0" gridSize="10" guides="1" tooltips="1" connect="1" arrows="1" fold="1" page="1" pageScale="1" pageWidth="827" pageHeight="1169" math="0" shadow="0">
            <root>
                <mxCell id="0"/>
                <mxCell id="1" parent="0"/>
                <mxCell id="u-FrUHWEFDejLxlOJI8D-13" value="" style="edgeStyle=orthogonalEdgeStyle;rounded=0;orthogonalLoop=1;jettySize=auto;html=1;fontSize=18;" parent="1" source="u-FrUHWEFDejLxlOJI8D-1" target="u-FrUHWEFDejLxlOJI8D-11" edge="1">
                    <mxGeometry relative="1" as="geometry"/>
                </mxCell>
                <mxCell id="u-FrUHWEFDejLxlOJI8D-1" value="Biðja Notenda um aðgang&amp;nbsp;&lt;br&gt;(Starfsmaður / Yfirmaður)" style="rounded=1;whiteSpace=wrap;html=1;fillColor=#CCFFCC;" parent="1" vertex="1">
                    <mxGeometry x="265" y="210" width="210" height="90" as="geometry"/>
                </mxCell>
                <mxCell id="u-FrUHWEFDejLxlOJI8D-2" value="" style="ellipse;html=1;shape=startState;fillColor=#000000;strokeColor=#ff0000;" parent="1" vertex="1">
                    <mxGeometry x="355" y="120" width="30" height="30" as="geometry"/>
                </mxCell>
                <mxCell id="u-FrUHWEFDejLxlOJI8D-3" value="" style="edgeStyle=orthogonalEdgeStyle;html=1;verticalAlign=bottom;endArrow=open;endSize=8;strokeColor=#ff0000;rounded=0;" parent="1" source="u-FrUHWEFDejLxlOJI8D-2" edge="1">
                    <mxGeometry relative="1" as="geometry">
                        <mxPoint x="370" y="210" as="targetPoint"/>
                    </mxGeometry>
                </mxCell>
                <mxCell id="u-FrUHWEFDejLxlOJI8D-4" value="Menu Display&lt;br&gt;(Employee)" style="rounded=1;whiteSpace=wrap;html=1;fillColor=#E5CCFF;" parent="1" vertex="1">
                    <mxGeometry x="47" y="416" width="210" height="90" as="geometry"/>
                </mxCell>
                <mxCell id="u-FrUHWEFDejLxlOJI8D-8" value="&lt;b&gt;&lt;font style=&quot;font-size: 18px&quot;&gt;UI Layer&lt;/font&gt;&lt;/b&gt;" style="text;html=1;align=center;verticalAlign=middle;resizable=0;points=[];autosize=1;strokeColor=none;fillColor=none;" parent="1" vertex="1">
                    <mxGeometry x="324" y="72" width="90" height="20" as="geometry"/>
                </mxCell>
                <mxCell id="u-FrUHWEFDejLxlOJI8D-11" value="&lt;font style=&quot;font-size: 12px&quot;&gt;M/E&lt;/font&gt;" style="rhombus;whiteSpace=wrap;html=1;fontSize=18;fillColor=#CCCCCC;" parent="1" vertex="1">
                    <mxGeometry x="336" y="321" width="68" height="57" as="geometry"/>
                </mxCell>
                <mxCell id="u-FrUHWEFDejLxlOJI8D-14" value="" style="endArrow=classic;html=1;rounded=0;fontSize=12;exitX=0.5;exitY=1;exitDx=0;exitDy=0;entryX=0.5;entryY=0;entryDx=0;entryDy=0;" parent="1" source="u-FrUHWEFDejLxlOJI8D-11" target="u-FrUHWEFDejLxlOJI8D-4" edge="1">
                    <mxGeometry width="50" height="50" relative="1" as="geometry">
                        <mxPoint x="393" y="469" as="sourcePoint"/>
                        <mxPoint x="443" y="419" as="targetPoint"/>
                        <Array as="points">
                            <mxPoint x="152" y="378"/>
                        </Array>
                    </mxGeometry>
                </mxCell>
                <mxCell id="u-FrUHWEFDejLxlOJI8D-15" value="Menu Display&lt;br&gt;(Manager)" style="rounded=1;whiteSpace=wrap;html=1;fillColor=#E5CCFF;" parent="1" vertex="1">
                    <mxGeometry x="617" y="407" width="210" height="90" as="geometry"/>
                </mxCell>
                <mxCell id="u-FrUHWEFDejLxlOJI8D-16" value="" style="endArrow=classic;html=1;rounded=0;fontSize=12;entryX=0.5;entryY=0;entryDx=0;entryDy=0;exitX=0.5;exitY=1;exitDx=0;exitDy=0;" parent="1" source="u-FrUHWEFDejLxlOJI8D-11" target="u-FrUHWEFDejLxlOJI8D-15" edge="1">
                    <mxGeometry width="50" height="50" relative="1" as="geometry">
                        <mxPoint x="369" y="382" as="sourcePoint"/>
                        <mxPoint x="443" y="419" as="targetPoint"/>
                        <Array as="points">
                            <mxPoint x="722" y="374"/>
                        </Array>
                    </mxGeometry>
                </mxCell>
                <mxCell id="u-FrUHWEFDejLxlOJI8D-17" value="Verkbeiðnir" style="rounded=1;whiteSpace=wrap;html=1;fontSize=12;fillColor=#FFCCE6;" parent="1" vertex="1">
                    <mxGeometry x="-55" y="586" width="120" height="60" as="geometry"/>
                </mxCell>
                <mxCell id="b5BpNdKmhlKSAC-iLB6q-30" value="" style="edgeStyle=orthogonalEdgeStyle;rounded=0;orthogonalLoop=1;jettySize=auto;html=1;fontSize=12;" parent="1" source="u-FrUHWEFDejLxlOJI8D-19" target="b5BpNdKmhlKSAC-iLB6q-29" edge="1">
                    <mxGeometry relative="1" as="geometry"/>
                </mxCell>
                <mxCell id="u-FrUHWEFDejLxlOJI8D-19" value="Listi fasteigna&lt;br&gt;(hægt að raða upp eftir henntugleika)" style="rounded=1;whiteSpace=wrap;html=1;fontSize=12;fillColor=#33FFFF;" parent="1" vertex="1">
                    <mxGeometry x="101" y="687" width="120" height="60" as="geometry"/>
                </mxCell>
                <mxCell id="u-FrUHWEFDejLxlOJI8D-31" value="" style="edgeStyle=orthogonalEdgeStyle;rounded=0;orthogonalLoop=1;jettySize=auto;html=1;fontSize=12;" parent="1" source="u-FrUHWEFDejLxlOJI8D-20" target="u-FrUHWEFDejLxlOJI8D-30" edge="1">
                    <mxGeometry relative="1" as="geometry"/>
                </mxCell>
                <mxCell id="u-FrUHWEFDejLxlOJI8D-20" value="Verktakar" style="rounded=1;whiteSpace=wrap;html=1;fontSize=12;fillColor=#FFCCE6;" parent="1" vertex="1">
                    <mxGeometry x="231" y="588" width="120" height="60" as="geometry"/>
                </mxCell>
                <mxCell id="u-FrUHWEFDejLxlOJI8D-27" value="" style="edgeStyle=orthogonalEdgeStyle;rounded=0;orthogonalLoop=1;jettySize=auto;html=1;fontSize=12;" parent="1" source="u-FrUHWEFDejLxlOJI8D-24" target="u-FrUHWEFDejLxlOJI8D-19" edge="1">
                    <mxGeometry relative="1" as="geometry"/>
                </mxCell>
                <mxCell id="u-FrUHWEFDejLxlOJI8D-24" value="Fasteignir" style="rounded=1;whiteSpace=wrap;html=1;fontSize=12;fillColor=#FFCCE6;" parent="1" vertex="1">
                    <mxGeometry x="88" y="586" width="120" height="60" as="geometry"/>
                </mxCell>
                <mxCell id="b5BpNdKmhlKSAC-iLB6q-31" value="" style="edgeStyle=orthogonalEdgeStyle;rounded=0;orthogonalLoop=1;jettySize=auto;html=1;fontSize=12;entryX=1;entryY=0.5;entryDx=0;entryDy=0;" parent="1" source="u-FrUHWEFDejLxlOJI8D-28" target="u-FrUHWEFDejLxlOJI8D-20" edge="1">
                    <mxGeometry relative="1" as="geometry">
                        <Array as="points">
                            <mxPoint x="26" y="788"/>
                            <mxPoint x="399" y="788"/>
                            <mxPoint x="399" y="618"/>
                        </Array>
                    </mxGeometry>
                </mxCell>
                <mxCell id="u-FrUHWEFDejLxlOJI8D-28" value="Skrá Verkskýrslu" style="rounded=1;whiteSpace=wrap;html=1;fontSize=12;fillColor=#33FFFF;" parent="1" vertex="1">
                    <mxGeometry x="-34" y="693" width="120" height="60" as="geometry"/>
                </mxCell>
                <mxCell id="u-FrUHWEFDejLxlOJI8D-30" value="Sýnir upl. um verktaka" style="rounded=1;whiteSpace=wrap;html=1;fontSize=12;fillColor=#33FFFF;" parent="1" vertex="1">
                    <mxGeometry x="260" y="680" width="120" height="60" as="geometry"/>
                </mxCell>
                <mxCell id="u-FrUHWEFDejLxlOJI8D-35" value="" style="edgeStyle=orthogonalEdgeStyle;rounded=0;orthogonalLoop=1;jettySize=auto;html=1;fontSize=12;" parent="1" source="u-FrUHWEFDejLxlOJI8D-32" target="u-FrUHWEFDejLxlOJI8D-28" edge="1">
                    <mxGeometry relative="1" as="geometry"/>
                </mxCell>
                <mxCell id="u-FrUHWEFDejLxlOJI8D-36" value="" style="edgeStyle=orthogonalEdgeStyle;rounded=0;orthogonalLoop=1;jettySize=auto;html=1;fontSize=12;" parent="1" source="u-FrUHWEFDejLxlOJI8D-32" edge="1">
                    <mxGeometry relative="1" as="geometry">
                        <mxPoint x="-131" y="693" as="targetPoint"/>
                    </mxGeometry>
                </mxCell>
                <mxCell id="u-FrUHWEFDejLxlOJI8D-32" value="" style="rhombus;whiteSpace=wrap;html=1;fontSize=12;fillColor=#E6E6E6;" parent="1" vertex="1">
                    <mxGeometry x="-63" y="659" width="19" height="21" as="geometry"/>
                </mxCell>
                <mxCell id="u-FrUHWEFDejLxlOJI8D-34" value="" style="endArrow=classic;html=1;rounded=0;fontSize=12;exitX=0.5;exitY=1;exitDx=0;exitDy=0;entryX=0.5;entryY=0;entryDx=0;entryDy=0;" parent="1" source="u-FrUHWEFDejLxlOJI8D-17" target="u-FrUHWEFDejLxlOJI8D-32" edge="1">
                    <mxGeometry width="50" height="50" relative="1" as="geometry">
                        <mxPoint x="77" y="730" as="sourcePoint"/>
                        <mxPoint x="127" y="680" as="targetPoint"/>
                        <Array as="points">
                            <mxPoint x="-53" y="646"/>
                        </Array>
                    </mxGeometry>
                </mxCell>
                <mxCell id="u-FrUHWEFDejLxlOJI8D-38" value="Starfsmenn" style="rounded=1;whiteSpace=wrap;html=1;fontSize=12;fillColor=#FFCCE6;" parent="1" vertex="1">
                    <mxGeometry x="508" y="579" width="120" height="60" as="geometry"/>
                </mxCell>
                <mxCell id="u-FrUHWEFDejLxlOJI8D-42" value="" style="rhombus;whiteSpace=wrap;html=1;fontSize=12;fillColor=#E6E6E6;" parent="1" vertex="1">
                    <mxGeometry x="550" y="650" width="24" height="24" as="geometry"/>
                </mxCell>
                <mxCell id="u-FrUHWEFDejLxlOJI8D-43" value="Skrá starfsmann" style="rounded=1;whiteSpace=wrap;html=1;fontSize=12;fillColor=#33FFFF;" parent="1" vertex="1">
                    <mxGeometry x="437" y="685" width="113" height="60" as="geometry"/>
                </mxCell>
                <mxCell id="b5BpNdKmhlKSAC-iLB6q-33" value="" style="edgeStyle=orthogonalEdgeStyle;rounded=0;orthogonalLoop=1;jettySize=auto;html=1;fontSize=12;" parent="1" source="u-FrUHWEFDejLxlOJI8D-46" target="b5BpNdKmhlKSAC-iLB6q-32" edge="1">
                    <mxGeometry relative="1" as="geometry"/>
                </mxCell>
                <mxCell id="u-FrUHWEFDejLxlOJI8D-46" value="Yfirlit starfsmanna" style="rounded=1;whiteSpace=wrap;html=1;fontSize=12;fillColor=#33FFFF;" parent="1" vertex="1">
                    <mxGeometry x="566" y="685" width="113" height="60" as="geometry"/>
                </mxCell>
                <mxCell id="u-FrUHWEFDejLxlOJI8D-47" value="" style="endArrow=none;html=1;rounded=0;fontSize=12;exitX=0.5;exitY=0;exitDx=0;exitDy=0;" parent="1" source="u-FrUHWEFDejLxlOJI8D-42" edge="1">
                    <mxGeometry width="50" height="50" relative="1" as="geometry">
                        <mxPoint x="656" y="738" as="sourcePoint"/>
                        <mxPoint x="562" y="641" as="targetPoint"/>
                    </mxGeometry>
                </mxCell>
                <mxCell id="u-FrUHWEFDejLxlOJI8D-49" value="" style="endArrow=classic;html=1;rounded=0;fontSize=12;exitX=0.5;exitY=1;exitDx=0;exitDy=0;entryX=0.5;entryY=0;entryDx=0;entryDy=0;" parent="1" source="u-FrUHWEFDejLxlOJI8D-42" target="u-FrUHWEFDejLxlOJI8D-46" edge="1">
                    <mxGeometry width="50" height="50" relative="1" as="geometry">
                        <mxPoint x="649" y="718" as="sourcePoint"/>
                        <mxPoint x="628" y="674" as="targetPoint"/>
                        <Array as="points">
                            <mxPoint x="623" y="674"/>
                        </Array>
                    </mxGeometry>
                </mxCell>
                <mxCell id="u-FrUHWEFDejLxlOJI8D-50" value="" style="endArrow=classic;html=1;rounded=0;fontSize=12;entryX=0.5;entryY=0;entryDx=0;entryDy=0;exitX=0.5;exitY=1;exitDx=0;exitDy=0;" parent="1" source="u-FrUHWEFDejLxlOJI8D-42" target="u-FrUHWEFDejLxlOJI8D-43" edge="1">
                    <mxGeometry width="50" height="50" relative="1" as="geometry">
                        <mxPoint x="563" y="676" as="sourcePoint"/>
                        <mxPoint x="699" y="668" as="targetPoint"/>
                        <Array as="points">
                            <mxPoint x="494" y="674"/>
                        </Array>
                    </mxGeometry>
                </mxCell>
                <mxCell id="u-FrUHWEFDejLxlOJI8D-51" value="" style="rhombus;whiteSpace=wrap;html=1;fontSize=12;fillColor=#E6E6E6;" parent="1" vertex="1">
                    <mxGeometry x="115" y="508" width="35" height="37" as="geometry"/>
                </mxCell>
                <mxCell id="u-FrUHWEFDejLxlOJI8D-52" value="" style="rhombus;whiteSpace=wrap;html=1;fontSize=12;fillColor=#E6E6E6;" parent="1" vertex="1">
                    <mxGeometry x="710" y="500" width="35" height="37" as="geometry"/>
                </mxCell>
                <mxCell id="u-FrUHWEFDejLxlOJI8D-53" value="Fasteignir" style="rounded=1;whiteSpace=wrap;html=1;fontSize=12;fillColor=#FFCCE6;" parent="1" vertex="1">
                    <mxGeometry x="767" y="579" width="120" height="60" as="geometry"/>
                </mxCell>
                <mxCell id="u-FrUHWEFDejLxlOJI8D-54" value="" style="rhombus;whiteSpace=wrap;html=1;fontSize=12;fillColor=#E6E6E6;" parent="1" vertex="1">
                    <mxGeometry x="809" y="650" width="24" height="24" as="geometry"/>
                </mxCell>
                <mxCell id="u-FrUHWEFDejLxlOJI8D-55" value="Skrá Fasteign" style="rounded=1;whiteSpace=wrap;html=1;fontSize=12;fillColor=#33FFFF;" parent="1" vertex="1">
                    <mxGeometry x="696" y="685" width="113" height="60" as="geometry"/>
                </mxCell>
                <mxCell id="b5BpNdKmhlKSAC-iLB6q-35" value="" style="edgeStyle=orthogonalEdgeStyle;rounded=0;orthogonalLoop=1;jettySize=auto;html=1;fontSize=12;" parent="1" source="u-FrUHWEFDejLxlOJI8D-56" target="b5BpNdKmhlKSAC-iLB6q-34" edge="1">
                    <mxGeometry relative="1" as="geometry"/>
                </mxCell>
                <mxCell id="u-FrUHWEFDejLxlOJI8D-56" value="Yfirlit Fasteigna" style="rounded=1;whiteSpace=wrap;html=1;fontSize=12;fillColor=#33FFFF;" parent="1" vertex="1">
                    <mxGeometry x="825" y="685" width="113" height="60" as="geometry"/>
                </mxCell>
                <mxCell id="u-FrUHWEFDejLxlOJI8D-57" value="" style="endArrow=none;html=1;rounded=0;fontSize=12;exitX=0.5;exitY=0;exitDx=0;exitDy=0;" parent="1" source="u-FrUHWEFDejLxlOJI8D-54" edge="1">
                    <mxGeometry width="50" height="50" relative="1" as="geometry">
                        <mxPoint x="915" y="738" as="sourcePoint"/>
                        <mxPoint x="821" y="641" as="targetPoint"/>
                    </mxGeometry>
                </mxCell>
                <mxCell id="u-FrUHWEFDejLxlOJI8D-58" value="" style="endArrow=classic;html=1;rounded=0;fontSize=12;exitX=0.5;exitY=1;exitDx=0;exitDy=0;entryX=0.5;entryY=0;entryDx=0;entryDy=0;" parent="1" source="u-FrUHWEFDejLxlOJI8D-54" target="u-FrUHWEFDejLxlOJI8D-56" edge="1">
                    <mxGeometry width="50" height="50" relative="1" as="geometry">
                        <mxPoint x="908" y="718" as="sourcePoint"/>
                        <mxPoint x="887" y="674" as="targetPoint"/>
                        <Array as="points">
                            <mxPoint x="882" y="674"/>
                        </Array>
                    </mxGeometry>
                </mxCell>
                <mxCell id="u-FrUHWEFDejLxlOJI8D-59" value="" style="endArrow=classic;html=1;rounded=0;fontSize=12;entryX=0.5;entryY=0;entryDx=0;entryDy=0;exitX=0.5;exitY=1;exitDx=0;exitDy=0;" parent="1" source="u-FrUHWEFDejLxlOJI8D-54" target="u-FrUHWEFDejLxlOJI8D-55" edge="1">
                    <mxGeometry width="50" height="50" relative="1" as="geometry">
                        <mxPoint x="822" y="676" as="sourcePoint"/>
                        <mxPoint x="958" y="668" as="targetPoint"/>
                        <Array as="points">
                            <mxPoint x="753" y="674"/>
                        </Array>
                    </mxGeometry>
                </mxCell>
                <mxCell id="u-FrUHWEFDejLxlOJI8D-60" value="Verkbeiðnir" style="rounded=1;whiteSpace=wrap;html=1;fontSize=12;fillColor=#FFCCE6;" parent="1" vertex="1">
                    <mxGeometry x="1044" y="579" width="120" height="60" as="geometry"/>
                </mxCell>
                <mxCell id="b5BpNdKmhlKSAC-iLB6q-52" value="" style="edgeStyle=orthogonalEdgeStyle;rounded=0;orthogonalLoop=1;jettySize=auto;html=1;fontSize=12;entryX=0.5;entryY=0;entryDx=0;entryDy=0;" parent="1" source="u-FrUHWEFDejLxlOJI8D-61" target="u-FrUHWEFDejLxlOJI8D-70" edge="1">
                    <mxGeometry relative="1" as="geometry">
                        <Array as="points">
                            <mxPoint x="1096" y="777"/>
                            <mxPoint x="1417" y="777"/>
                        </Array>
                    </mxGeometry>
                </mxCell>
                <mxCell id="u-FrUHWEFDejLxlOJI8D-61" value="" style="rhombus;whiteSpace=wrap;html=1;fontSize=12;fillColor=#E6E6E6;" parent="1" vertex="1">
                    <mxGeometry x="1080" y="691" width="32" height="38" as="geometry"/>
                </mxCell>
                <mxCell id="u-FrUHWEFDejLxlOJI8D-64" value="" style="endArrow=none;html=1;rounded=0;fontSize=12;exitX=0.5;exitY=0;exitDx=0;exitDy=0;" parent="1" source="u-FrUHWEFDejLxlOJI8D-61" edge="1">
                    <mxGeometry width="50" height="50" relative="1" as="geometry">
                        <mxPoint x="1192" y="738" as="sourcePoint"/>
                        <mxPoint x="1098" y="641" as="targetPoint"/>
                    </mxGeometry>
                </mxCell>
                <mxCell id="u-FrUHWEFDejLxlOJI8D-70" value="Skrá verkbeiðni" style="rounded=1;whiteSpace=wrap;html=1;fontSize=12;fillColor=#FFCE9F;" parent="1" vertex="1">
                    <mxGeometry x="1360" y="846" width="113" height="60" as="geometry"/>
                </mxCell>
                <mxCell id="u-FrUHWEFDejLxlOJI8D-71" value="Verktakar" style="rounded=1;whiteSpace=wrap;html=1;fontSize=12;fillColor=#FFCCE6;" parent="1" vertex="1">
                    <mxGeometry x="1704" y="579" width="120" height="60" as="geometry"/>
                </mxCell>
                <mxCell id="b5BpNdKmhlKSAC-iLB6q-67" value="" style="edgeStyle=orthogonalEdgeStyle;rounded=0;orthogonalLoop=1;jettySize=auto;html=1;fontSize=12;" parent="1" source="u-FrUHWEFDejLxlOJI8D-72" edge="1">
                    <mxGeometry relative="1" as="geometry">
                        <mxPoint x="1758.0000000000005" y="687" as="targetPoint"/>
                    </mxGeometry>
                </mxCell>
                <mxCell id="u-FrUHWEFDejLxlOJI8D-72" value="" style="rhombus;whiteSpace=wrap;html=1;fontSize=12;fillColor=#E6E6E6;" parent="1" vertex="1">
                    <mxGeometry x="1746" y="648" width="24" height="24" as="geometry"/>
                </mxCell>
                <mxCell id="b5BpNdKmhlKSAC-iLB6q-78" value="" style="edgeStyle=orthogonalEdgeStyle;rounded=0;orthogonalLoop=1;jettySize=auto;html=1;fontSize=12;" parent="1" source="u-FrUHWEFDejLxlOJI8D-74" target="b5BpNdKmhlKSAC-iLB6q-77" edge="1">
                    <mxGeometry relative="1" as="geometry"/>
                </mxCell>
                <mxCell id="u-FrUHWEFDejLxlOJI8D-74" value="Yfirlit&amp;nbsp; skráðra Verktaka" style="rounded=1;whiteSpace=wrap;html=1;fontSize=12;fillColor=#33FFFF;" parent="1" vertex="1">
                    <mxGeometry x="1881" y="693" width="113" height="60" as="geometry"/>
                </mxCell>
                <mxCell id="u-FrUHWEFDejLxlOJI8D-75" value="" style="endArrow=none;html=1;rounded=0;fontSize=12;exitX=0.5;exitY=0;exitDx=0;exitDy=0;" parent="1" source="u-FrUHWEFDejLxlOJI8D-72" edge="1">
                    <mxGeometry width="50" height="50" relative="1" as="geometry">
                        <mxPoint x="1589" y="738" as="sourcePoint"/>
                        <mxPoint x="1758" y="641" as="targetPoint"/>
                    </mxGeometry>
                </mxCell>
                <mxCell id="b5BpNdKmhlKSAC-iLB6q-1" value="" style="endArrow=open;endFill=1;endSize=12;html=1;rounded=0;fontSize=12;exitX=0.5;exitY=1;exitDx=0;exitDy=0;entryX=0.5;entryY=0;entryDx=0;entryDy=0;" parent="1" source="u-FrUHWEFDejLxlOJI8D-52" target="u-FrUHWEFDejLxlOJI8D-38" edge="1">
                    <mxGeometry width="160" relative="1" as="geometry">
                        <mxPoint x="620" y="718" as="sourcePoint"/>
                        <mxPoint x="780" y="718" as="targetPoint"/>
                        <Array as="points">
                            <mxPoint x="568" y="537"/>
                        </Array>
                    </mxGeometry>
                </mxCell>
                <mxCell id="b5BpNdKmhlKSAC-iLB6q-2" value="" style="endArrow=open;endFill=1;endSize=12;html=1;rounded=0;fontSize=12;entryX=0.5;entryY=0;entryDx=0;entryDy=0;" parent="1" target="u-FrUHWEFDejLxlOJI8D-53" edge="1">
                    <mxGeometry width="160" relative="1" as="geometry">
                        <mxPoint x="727" y="536" as="sourcePoint"/>
                        <mxPoint x="780" y="718" as="targetPoint"/>
                        <Array as="points">
                            <mxPoint x="827" y="536"/>
                        </Array>
                    </mxGeometry>
                </mxCell>
                <mxCell id="b5BpNdKmhlKSAC-iLB6q-4" value="" style="endArrow=open;endFill=1;endSize=12;html=1;rounded=0;fontSize=12;entryX=0.5;entryY=0;entryDx=0;entryDy=0;" parent="1" target="u-FrUHWEFDejLxlOJI8D-60" edge="1">
                    <mxGeometry width="160" relative="1" as="geometry">
                        <mxPoint x="728" y="537" as="sourcePoint"/>
                        <mxPoint x="969" y="718" as="targetPoint"/>
                        <Array as="points">
                            <mxPoint x="1104" y="537"/>
                        </Array>
                    </mxGeometry>
                </mxCell>
                <mxCell id="b5BpNdKmhlKSAC-iLB6q-5" value="" style="endArrow=open;endFill=1;endSize=12;html=1;rounded=0;fontSize=12;entryX=0.5;entryY=0;entryDx=0;entryDy=0;" parent="1" target="u-FrUHWEFDejLxlOJI8D-71" edge="1">
                    <mxGeometry width="160" relative="1" as="geometry">
                        <mxPoint x="729" y="534" as="sourcePoint"/>
                        <mxPoint x="969" y="718" as="targetPoint"/>
                        <Array as="points">
                            <mxPoint x="1764" y="529"/>
                        </Array>
                    </mxGeometry>
                </mxCell>
                <mxCell id="b5BpNdKmhlKSAC-iLB6q-6" value="" style="endArrow=open;endFill=1;endSize=12;html=1;rounded=0;fontSize=12;entryX=0.5;entryY=0;entryDx=0;entryDy=0;exitX=0.5;exitY=1;exitDx=0;exitDy=0;" parent="1" source="u-FrUHWEFDejLxlOJI8D-51" target="u-FrUHWEFDejLxlOJI8D-20" edge="1">
                    <mxGeometry width="160" relative="1" as="geometry">
                        <mxPoint x="358" y="695" as="sourcePoint"/>
                        <mxPoint x="518" y="695" as="targetPoint"/>
                        <Array as="points">
                            <mxPoint x="291" y="545"/>
                        </Array>
                    </mxGeometry>
                </mxCell>
                <mxCell id="b5BpNdKmhlKSAC-iLB6q-7" value="" style="endArrow=open;endFill=1;endSize=12;html=1;rounded=0;fontSize=12;entryX=0.359;entryY=0.039;entryDx=0;entryDy=0;entryPerimeter=0;" parent="1" target="u-FrUHWEFDejLxlOJI8D-24" edge="1">
                    <mxGeometry width="160" relative="1" as="geometry">
                        <mxPoint x="133" y="546" as="sourcePoint"/>
                        <mxPoint x="518" y="695" as="targetPoint"/>
                    </mxGeometry>
                </mxCell>
                <mxCell id="b5BpNdKmhlKSAC-iLB6q-8" value="" style="endArrow=open;endFill=1;endSize=12;html=1;rounded=0;fontSize=12;entryX=0.5;entryY=0;entryDx=0;entryDy=0;" parent="1" target="u-FrUHWEFDejLxlOJI8D-17" edge="1">
                    <mxGeometry width="160" relative="1" as="geometry">
                        <mxPoint x="132" y="548" as="sourcePoint"/>
                        <mxPoint x="518" y="695" as="targetPoint"/>
                        <Array as="points">
                            <mxPoint x="5" y="548"/>
                        </Array>
                    </mxGeometry>
                </mxCell>
                <mxCell id="b5BpNdKmhlKSAC-iLB6q-16" value="Opnar verkbeiðnir" style="rounded=1;whiteSpace=wrap;html=1;fontSize=12;fillColor=#66FFFF;" parent="1" vertex="1">
                    <mxGeometry x="-491" y="691" width="120" height="60" as="geometry"/>
                </mxCell>
                <mxCell id="b5BpNdKmhlKSAC-iLB6q-17" value="Lokaðar verkbeiðnir" style="rounded=1;whiteSpace=wrap;html=1;fontSize=12;fillColor=#66FFFF;" parent="1" vertex="1">
                    <mxGeometry x="-327.5" y="693" width="120" height="60" as="geometry"/>
                </mxCell>
                <mxCell id="b5BpNdKmhlKSAC-iLB6q-22" value="&quot;Komandi Verkefni&quot;" style="rounded=1;whiteSpace=wrap;html=1;fontSize=12;fillColor=#66FFFF;" parent="1" vertex="1">
                    <mxGeometry x="-186" y="693" width="120" height="60" as="geometry"/>
                </mxCell>
                <mxCell id="b5BpNdKmhlKSAC-iLB6q-23" value="Tilbúnar (ósamþykktar)" style="rounded=1;whiteSpace=wrap;html=1;fontSize=12;fillColor=#FF12A8;" parent="1" vertex="1">
                    <mxGeometry x="-569.5" y="797" width="120" height="60" as="geometry"/>
                </mxCell>
                <mxCell id="b5BpNdKmhlKSAC-iLB6q-24" value="Verkbeiðnir í vinnslu" style="rounded=1;whiteSpace=wrap;html=1;fontSize=12;fillColor=#FF12A8;" parent="1" vertex="1">
                    <mxGeometry x="-412.5" y="797" width="120" height="60" as="geometry"/>
                </mxCell>
                <mxCell id="b5BpNdKmhlKSAC-iLB6q-25" value="" style="edgeStyle=orthogonalEdgeStyle;rounded=0;orthogonalLoop=1;jettySize=auto;html=1;fontSize=12;" parent="1" source="b5BpNdKmhlKSAC-iLB6q-27" target="b5BpNdKmhlKSAC-iLB6q-24" edge="1">
                    <mxGeometry relative="1" as="geometry"/>
                </mxCell>
                <mxCell id="b5BpNdKmhlKSAC-iLB6q-26" value="" style="edgeStyle=orthogonalEdgeStyle;rounded=0;orthogonalLoop=1;jettySize=auto;html=1;fontSize=12;" parent="1" source="b5BpNdKmhlKSAC-iLB6q-27" target="b5BpNdKmhlKSAC-iLB6q-23" edge="1">
                    <mxGeometry relative="1" as="geometry"/>
                </mxCell>
                <mxCell id="b5BpNdKmhlKSAC-iLB6q-27" value="" style="rhombus;whiteSpace=wrap;html=1;fontSize=12;fillColor=#E6E6E6;" parent="1" vertex="1">
                    <mxGeometry x="-441.5" y="763" width="19" height="21" as="geometry"/>
                </mxCell>
                <mxCell id="b5BpNdKmhlKSAC-iLB6q-29" value="Valin fasteign" style="rounded=1;whiteSpace=wrap;html=1;fontSize=12;fillColor=#FFCE9F;" parent="1" vertex="1">
                    <mxGeometry x="101" y="841" width="120" height="60" as="geometry"/>
                </mxCell>
                <mxCell id="b5BpNdKmhlKSAC-iLB6q-32" value="Valinn starfsmaður&lt;br&gt;(möguleiki á breyta starfsmanna upl)" style="rounded=1;whiteSpace=wrap;html=1;fontSize=12;fillColor=#FFCE9F;" parent="1" vertex="1">
                    <mxGeometry x="566" y="841" width="113" height="60" as="geometry"/>
                </mxCell>
                <mxCell id="b5BpNdKmhlKSAC-iLB6q-34" value="Valin fasteign" style="rounded=1;whiteSpace=wrap;html=1;fontSize=12;fillColor=#FFCE9F;" parent="1" vertex="1">
                    <mxGeometry x="825" y="841" width="113" height="60" as="geometry"/>
                </mxCell>
                <mxCell id="b5BpNdKmhlKSAC-iLB6q-60" value="" style="edgeStyle=orthogonalEdgeStyle;rounded=0;orthogonalLoop=1;jettySize=auto;html=1;fontSize=12;" parent="1" source="b5BpNdKmhlKSAC-iLB6q-42" target="b5BpNdKmhlKSAC-iLB6q-59" edge="1">
                    <mxGeometry relative="1" as="geometry"/>
                </mxCell>
                <mxCell id="b5BpNdKmhlKSAC-iLB6q-42" value="Opnar verkbeiðnir" style="rounded=1;whiteSpace=wrap;html=1;fontSize=12;fillColor=#FFCE9F;" parent="1" vertex="1">
                    <mxGeometry x="960" y="846" width="120" height="60" as="geometry"/>
                </mxCell>
                <mxCell id="b5BpNdKmhlKSAC-iLB6q-58" value="" style="edgeStyle=orthogonalEdgeStyle;rounded=0;orthogonalLoop=1;jettySize=auto;html=1;fontSize=12;" parent="1" source="b5BpNdKmhlKSAC-iLB6q-43" target="b5BpNdKmhlKSAC-iLB6q-57" edge="1">
                    <mxGeometry relative="1" as="geometry"/>
                </mxCell>
                <mxCell id="b5BpNdKmhlKSAC-iLB6q-43" value="Lokaðar verkbeiðnir" style="rounded=1;whiteSpace=wrap;html=1;fontSize=12;fillColor=#FFCE9F;" parent="1" vertex="1">
                    <mxGeometry x="1095" y="846" width="120" height="60" as="geometry"/>
                </mxCell>
                <mxCell id="b5BpNdKmhlKSAC-iLB6q-48" value="&quot;Komandi Verkefni&quot;" style="rounded=1;whiteSpace=wrap;html=1;fontSize=12;fillColor=#FFCE9F;" parent="1" vertex="1">
                    <mxGeometry x="1224" y="846" width="120" height="60" as="geometry"/>
                </mxCell>
                <mxCell id="b5BpNdKmhlKSAC-iLB6q-54" value="" style="endArrow=open;endFill=1;endSize=12;html=1;rounded=0;fontSize=12;entryX=0.5;entryY=0;entryDx=0;entryDy=0;" parent="1" target="b5BpNdKmhlKSAC-iLB6q-48" edge="1">
                    <mxGeometry width="160" relative="1" as="geometry">
                        <mxPoint x="1097" y="730" as="sourcePoint"/>
                        <mxPoint x="1055" y="892" as="targetPoint"/>
                        <Array as="points">
                            <mxPoint x="1284" y="730"/>
                        </Array>
                    </mxGeometry>
                </mxCell>
                <mxCell id="b5BpNdKmhlKSAC-iLB6q-55" value="" style="endArrow=open;endFill=1;endSize=12;html=1;rounded=0;fontSize=12;entryX=0.5;entryY=0;entryDx=0;entryDy=0;" parent="1" edge="1">
                    <mxGeometry width="160" relative="1" as="geometry">
                        <mxPoint x="1096" y="730" as="sourcePoint"/>
                        <mxPoint x="1161.9999999999995" y="846" as="targetPoint"/>
                        <Array as="points">
                            <mxPoint x="1162" y="730"/>
                        </Array>
                    </mxGeometry>
                </mxCell>
                <mxCell id="b5BpNdKmhlKSAC-iLB6q-56" value="" style="endArrow=open;endFill=1;endSize=12;html=1;rounded=0;fontSize=12;entryX=0.5;entryY=0;entryDx=0;entryDy=0;" parent="1" target="b5BpNdKmhlKSAC-iLB6q-42" edge="1">
                    <mxGeometry width="160" relative="1" as="geometry">
                        <mxPoint x="1096" y="729" as="sourcePoint"/>
                        <mxPoint x="1055" y="892" as="targetPoint"/>
                        <Array as="points">
                            <mxPoint x="1020" y="729"/>
                        </Array>
                    </mxGeometry>
                </mxCell>
                <mxCell id="b5BpNdKmhlKSAC-iLB6q-57" value="Valin verkbeiðni&lt;br&gt;(möguleiki á opnun)" style="rounded=1;whiteSpace=wrap;html=1;fontSize=12;fillColor=#FF12A8;" parent="1" vertex="1">
                    <mxGeometry x="1095" y="946" width="120" height="60" as="geometry"/>
                </mxCell>
                <mxCell id="b5BpNdKmhlKSAC-iLB6q-59" value="Valin verkbeiðni&lt;br&gt;(Skrá verkskýrslu)" style="rounded=1;whiteSpace=wrap;html=1;fontSize=12;fillColor=#FF12A8;" parent="1" vertex="1">
                    <mxGeometry x="960" y="946" width="120" height="60" as="geometry"/>
                </mxCell>
                <mxCell id="b5BpNdKmhlKSAC-iLB6q-64" value="" style="edgeStyle=orthogonalEdgeStyle;rounded=0;orthogonalLoop=1;jettySize=auto;html=1;fontSize=12;" parent="1" source="b5BpNdKmhlKSAC-iLB6q-61" target="b5BpNdKmhlKSAC-iLB6q-63" edge="1">
                    <mxGeometry relative="1" as="geometry"/>
                </mxCell>
                <mxCell id="b5BpNdKmhlKSAC-iLB6q-61" value="Útistandandi verkbeiðnir" style="rounded=1;whiteSpace=wrap;html=1;fontSize=12;fillColor=#FFCE9F;" parent="1" vertex="1">
                    <mxGeometry x="1493" y="846" width="113" height="60" as="geometry"/>
                </mxCell>
                <mxCell id="b5BpNdKmhlKSAC-iLB6q-62" value="" style="endArrow=open;endFill=1;endSize=12;html=1;rounded=0;fontSize=12;entryX=0.5;entryY=0;entryDx=0;entryDy=0;" parent="1" target="b5BpNdKmhlKSAC-iLB6q-61" edge="1">
                    <mxGeometry width="160" relative="1" as="geometry">
                        <mxPoint x="1097" y="731" as="sourcePoint"/>
                        <mxPoint x="1266" y="858" as="targetPoint"/>
                        <Array as="points">
                            <mxPoint x="1097" y="803"/>
                            <mxPoint x="1550" y="803"/>
                        </Array>
                    </mxGeometry>
                </mxCell>
                <mxCell id="b5BpNdKmhlKSAC-iLB6q-63" value="Valin Verbeiðni&lt;br&gt;Hafna/samþykkja" style="rounded=1;whiteSpace=wrap;html=1;fontSize=12;fillColor=#FF12A8;" parent="1" vertex="1">
                    <mxGeometry x="1493" y="946" width="113" height="60" as="geometry"/>
                </mxCell>
                <mxCell id="b5BpNdKmhlKSAC-iLB6q-69" value="" style="endArrow=open;endFill=1;endSize=12;html=1;rounded=0;fontSize=12;entryX=0.5;entryY=0;entryDx=0;entryDy=0;" parent="1" target="u-FrUHWEFDejLxlOJI8D-74" edge="1">
                    <mxGeometry width="160" relative="1" as="geometry">
                        <mxPoint x="1758" y="675" as="sourcePoint"/>
                        <mxPoint x="1487" y="814" as="targetPoint"/>
                        <Array as="points">
                            <mxPoint x="1938" y="675"/>
                        </Array>
                    </mxGeometry>
                </mxCell>
                <mxCell id="b5BpNdKmhlKSAC-iLB6q-76" value="" style="edgeStyle=orthogonalEdgeStyle;rounded=0;orthogonalLoop=1;jettySize=auto;html=1;fontSize=12;" parent="1" source="b5BpNdKmhlKSAC-iLB6q-74" target="b5BpNdKmhlKSAC-iLB6q-75" edge="1">
                    <mxGeometry relative="1" as="geometry"/>
                </mxCell>
                <mxCell id="b5BpNdKmhlKSAC-iLB6q-74" value="Skoða nýja verktaka" style="rounded=1;whiteSpace=wrap;html=1;fontSize=12;fillColor=#33FFFF;" parent="1" vertex="1">
                    <mxGeometry x="1669" y="693" width="113" height="60" as="geometry"/>
                </mxCell>
                <mxCell id="b5BpNdKmhlKSAC-iLB6q-75" value="Valin verktaki&lt;br&gt;Skrá&amp;nbsp;verktaka" style="rounded=1;whiteSpace=wrap;html=1;fontSize=12;fillColor=#FFCE9F;" parent="1" vertex="1">
                    <mxGeometry x="1669" y="841" width="113" height="60" as="geometry"/>
                </mxCell>
                <mxCell id="b5BpNdKmhlKSAC-iLB6q-77" value="Valin verktaki&lt;br&gt;(skrá á verkskýrslu)" style="rounded=1;whiteSpace=wrap;html=1;fontSize=12;fillColor=#FFCE9F;" parent="1" vertex="1">
                    <mxGeometry x="1881" y="841" width="113" height="60" as="geometry"/>
                </mxCell>
                <mxCell id="b5BpNdKmhlKSAC-iLB6q-114" value="" style="edgeStyle=orthogonalEdgeStyle;rounded=0;orthogonalLoop=1;jettySize=auto;html=1;fontSize=12;exitX=0;exitY=1;exitDx=0;exitDy=0;" parent="1" source="u-FrUHWEFDejLxlOJI8D-32" edge="1">
                    <mxGeometry relative="1" as="geometry">
                        <mxPoint x="-209.93537414965976" y="672.0014285714286" as="sourcePoint"/>
                        <mxPoint x="-278" y="695.43" as="targetPoint"/>
                    </mxGeometry>
                </mxCell>
                <mxCell id="b5BpNdKmhlKSAC-iLB6q-115" value="" style="edgeStyle=orthogonalEdgeStyle;rounded=0;orthogonalLoop=1;jettySize=auto;html=1;fontSize=12;" parent="1" edge="1">
                    <mxGeometry relative="1" as="geometry">
                        <mxPoint x="-59" y="672" as="sourcePoint"/>
                        <mxPoint x="-432" y="692.6799999999998" as="targetPoint"/>
                    </mxGeometry>
                </mxCell>
            </root>
        </mxGraphModel>
    </diagram>
    <diagram id="pJsvgngAoWqq5p5pX2gt" name="Útlitshönnun">
        <mxGraphModel dx="1309" dy="349" grid="0" gridSize="10" guides="1" tooltips="1" connect="1" arrows="1" fold="1" page="1" pageScale="1" pageWidth="827" pageHeight="1169" math="0" shadow="0">
            <root>
                <mxCell id="8ZErG4yBXKm2X5zu9cKU-0"/>
                <mxCell id="8ZErG4yBXKm2X5zu9cKU-1" parent="8ZErG4yBXKm2X5zu9cKU-0"/>
                <mxCell id="KeDDKEuDdWPWOJVIcQrJ-0" value="&lt;b&gt;Menu&lt;/b&gt;:&amp;nbsp; I &lt;b&gt;Verkbeiðnir[ V ]&lt;/b&gt; I &lt;b&gt;Fasteignir [ F ]&lt;/b&gt;&amp;nbsp;I &lt;b&gt;Verktakar[ V ]&lt;/b&gt; I" style="html=1;fontSize=12;fillColor=#FFFFCC;" parent="8ZErG4yBXKm2X5zu9cKU-1" vertex="1">
                    <mxGeometry x="-508" y="1246" width="421" height="48" as="geometry"/>
                </mxCell>
                <mxCell id="KeDDKEuDdWPWOJVIcQrJ-1" value="&lt;b&gt;Menu [M]&lt;/b&gt;&amp;nbsp;I &lt;b&gt;Verkbeiðnir[V]&lt;/b&gt; I &lt;b&gt;Fasteignir [F]&lt;/b&gt; I &lt;b&gt;Verktakar[V]&lt;/b&gt; I&lt;br&gt;&lt;div style=&quot;text-align: left&quot;&gt;&lt;b&gt;Fasteignir&lt;/b&gt;&lt;span&gt;:&lt;/span&gt;&lt;/div&gt;&lt;div style=&quot;text-align: left&quot;&gt;Fasteign A [1]&lt;/div&gt;&lt;div style=&quot;text-align: left&quot;&gt;Fasteign B [2]&lt;/div&gt;&lt;div style=&quot;text-align: left&quot;&gt;Fasteign C [3]&lt;/div&gt;" style="html=1;fontSize=12;fillColor=#FFFFCC;" parent="8ZErG4yBXKm2X5zu9cKU-1" vertex="1">
                    <mxGeometry x="-38" y="1944" width="421" height="92" as="geometry"/>
                </mxCell>
                <mxCell id="KeDDKEuDdWPWOJVIcQrJ-2" value="&lt;font style=&quot;font-size: 18px&quot;&gt;&lt;b&gt;Employees&lt;/b&gt;&lt;/font&gt;" style="text;html=1;align=center;verticalAlign=middle;resizable=0;points=[];autosize=1;strokeColor=none;fillColor=none;fontSize=12;" parent="8ZErG4yBXKm2X5zu9cKU-1" vertex="1">
                    <mxGeometry x="-319" y="1077" width="105" height="20" as="geometry"/>
                </mxCell>
                <mxCell id="KeDDKEuDdWPWOJVIcQrJ-3" value="Upphafsskjár:&lt;br&gt;" style="text;html=1;align=center;verticalAlign=middle;resizable=0;points=[];autosize=1;strokeColor=none;fillColor=none;fontSize=18;" parent="8ZErG4yBXKm2X5zu9cKU-1" vertex="1">
                    <mxGeometry x="-381" y="1121" width="120" height="26" as="geometry"/>
                </mxCell>
                <mxCell id="KeDDKEuDdWPWOJVIcQrJ-4" value="&lt;b&gt;Log in:&lt;br&gt;&lt;div style=&quot;text-align: left&quot;&gt;&lt;b&gt;Log in as Employee [ E ]&lt;/b&gt;&lt;/div&gt;&lt;/b&gt;&lt;b&gt;&lt;div style=&quot;text-align: left&quot;&gt;&lt;b&gt;Log in as Maneger[ M ]&lt;/b&gt;&lt;/div&gt;&lt;/b&gt;" style="html=1;fontSize=12;fillColor=#FFFFCC;" parent="8ZErG4yBXKm2X5zu9cKU-1" vertex="1">
                    <mxGeometry x="-508" y="1154" width="423" height="55" as="geometry"/>
                </mxCell>
                <mxCell id="KeDDKEuDdWPWOJVIcQrJ-5" value="&lt;font style=&quot;font-size: 12px&quot;&gt;Enter ---&amp;gt; Employee [E]&amp;nbsp;&lt;/font&gt;" style="text;html=1;align=center;verticalAlign=middle;resizable=0;points=[];autosize=1;strokeColor=none;fillColor=none;fontSize=18;" parent="8ZErG4yBXKm2X5zu9cKU-1" vertex="1">
                    <mxGeometry x="-409" y="1218" width="139" height="28" as="geometry"/>
                </mxCell>
                <mxCell id="KeDDKEuDdWPWOJVIcQrJ-6" value="&lt;font style=&quot;font-size: 12px&quot;&gt;Enter ---&amp;gt; Verkbeiðnir[V]&amp;nbsp;&lt;/font&gt;" style="text;html=1;align=center;verticalAlign=middle;resizable=0;points=[];autosize=1;strokeColor=none;fillColor=none;fontSize=18;" parent="8ZErG4yBXKm2X5zu9cKU-1" vertex="1">
                    <mxGeometry x="55" y="1190" width="143" height="28" as="geometry"/>
                </mxCell>
                <mxCell id="KeDDKEuDdWPWOJVIcQrJ-7" value="&lt;b&gt;Menu [M]&lt;/b&gt;&amp;nbsp;I &lt;b&gt;Verkbeiðnir[V]&lt;/b&gt; I &lt;b&gt;Fasteignir [F]&lt;/b&gt; I &lt;b&gt;Verktakar[V]&lt;/b&gt; I&lt;br&gt;&lt;div style=&quot;text-align: left&quot;&gt;&lt;b&gt;Verkbeiðnir&lt;/b&gt;&lt;span&gt;:&lt;/span&gt;&lt;/div&gt;&lt;div style=&quot;text-align: left&quot;&gt;&lt;b&gt;Opnar verkbeiðnir [A]&lt;/b&gt;&lt;/div&gt;&lt;div style=&quot;text-align: left&quot;&gt;&lt;b&gt;Lokaðar verkbeiðnir [B]&lt;/b&gt;&lt;/div&gt;&lt;div style=&quot;text-align: left&quot;&gt;&lt;b&gt;Komandi verkbeiðnir [C]&lt;/b&gt;&lt;/div&gt;&lt;div style=&quot;text-align: left&quot;&gt;&lt;b&gt;Skrá Verkbeiðnir [D]&lt;/b&gt;&lt;/div&gt;" style="html=1;fontSize=12;fillColor=#FFFFCC;" parent="8ZErG4yBXKm2X5zu9cKU-1" vertex="1">
                    <mxGeometry x="-36" y="1232" width="395" height="99" as="geometry"/>
                </mxCell>
                <mxCell id="KeDDKEuDdWPWOJVIcQrJ-8" value="&lt;font style=&quot;font-size: 12px&quot;&gt;Enter ---&amp;gt; Fasteignir [F]&amp;nbsp;&lt;/font&gt;" style="text;html=1;align=center;verticalAlign=middle;resizable=0;points=[];autosize=1;strokeColor=none;fillColor=none;fontSize=18;" parent="8ZErG4yBXKm2X5zu9cKU-1" vertex="1">
                    <mxGeometry x="21" y="1902" width="138" height="28" as="geometry"/>
                </mxCell>
                <mxCell id="KeDDKEuDdWPWOJVIcQrJ-9" value="&lt;b&gt;Menu [M]&lt;/b&gt;&amp;nbsp;I &lt;b&gt;Verkbeiðnir[V]&lt;/b&gt; I &lt;b&gt;Fasteignir [F]&lt;/b&gt; I &lt;b&gt;Verktakar[V]&lt;/b&gt; I&lt;br&gt;&lt;div style=&quot;text-align: left&quot;&gt;&lt;b&gt;Fasteignir&lt;/b&gt;&lt;span&gt;:&lt;/span&gt;&lt;/div&gt;&lt;div style=&quot;text-align: left&quot;&gt;&lt;span&gt;&lt;b&gt;Fasteign A:&lt;/b&gt;&lt;/span&gt;&lt;br&gt;&lt;/div&gt;&lt;div style=&quot;text-align: left&quot;&gt;upl A [1]&lt;/div&gt;&lt;div style=&quot;text-align: left&quot;&gt;upl B [2]&lt;br&gt;&lt;/div&gt;" style="html=1;fontSize=12;fillColor=#FFFFCC;" parent="8ZErG4yBXKm2X5zu9cKU-1" vertex="1">
                    <mxGeometry x="466" y="1944" width="395" height="99" as="geometry"/>
                </mxCell>
                <mxCell id="KeDDKEuDdWPWOJVIcQrJ-10" value="&lt;font style=&quot;font-size: 12px&quot;&gt;Enter ---&amp;gt; [1]&amp;nbsp;&lt;/font&gt;" style="text;html=1;align=center;verticalAlign=middle;resizable=0;points=[];autosize=1;strokeColor=none;fillColor=none;fontSize=18;" parent="8ZErG4yBXKm2X5zu9cKU-1" vertex="1">
                    <mxGeometry x="582" y="1907" width="81" height="28" as="geometry"/>
                </mxCell>
                <mxCell id="KeDDKEuDdWPWOJVIcQrJ-11" value="&lt;b&gt;Menu [M]&lt;/b&gt;&amp;nbsp;I &lt;b&gt;Verkbeiðnir[V]&lt;/b&gt; I &lt;b&gt;Fasteignir [F]&lt;/b&gt; I &lt;b&gt;Verktakar[V]&lt;/b&gt; I&lt;br&gt;&lt;div style=&quot;text-align: left&quot;&gt;&lt;b&gt;Verktakar&lt;/b&gt;&lt;span&gt;:&lt;/span&gt;&lt;/div&gt;&lt;div style=&quot;text-align: left&quot;&gt;Verktaki A [1]&lt;/div&gt;&lt;div style=&quot;text-align: left&quot;&gt;Verktaki B [2]&lt;/div&gt;&lt;div style=&quot;text-align: left&quot;&gt;Verktaki C [3]&lt;/div&gt;" style="html=1;fontSize=12;fillColor=#FFFFCC;" parent="8ZErG4yBXKm2X5zu9cKU-1" vertex="1">
                    <mxGeometry x="-39" y="2103" width="421" height="92" as="geometry"/>
                </mxCell>
                <mxCell id="KeDDKEuDdWPWOJVIcQrJ-12" value="&lt;font style=&quot;font-size: 12px&quot;&gt;Enter ---&amp;gt; Verktakar [V]&amp;nbsp;&lt;/font&gt;" style="text;html=1;align=center;verticalAlign=middle;resizable=0;points=[];autosize=1;strokeColor=none;fillColor=none;fontSize=18;" parent="8ZErG4yBXKm2X5zu9cKU-1" vertex="1">
                    <mxGeometry x="13" y="2071" width="137" height="28" as="geometry"/>
                </mxCell>
                <mxCell id="KeDDKEuDdWPWOJVIcQrJ-13" value="&lt;b&gt;Menu [M]&lt;/b&gt;&amp;nbsp;I &lt;b&gt;Verkbeiðnir[V]&lt;/b&gt; I &lt;b&gt;Fasteignir [F]&lt;/b&gt; I &lt;b&gt;Verktakar[V]&lt;/b&gt; I&lt;br&gt;&lt;div style=&quot;text-align: left&quot;&gt;&lt;b&gt;Verktakar&lt;/b&gt;&lt;span&gt;:&lt;/span&gt;&lt;/div&gt;&lt;div style=&quot;text-align: left&quot;&gt;&lt;b&gt;Verktaki A:&lt;/b&gt;&lt;/div&gt;&lt;div style=&quot;text-align: left&quot;&gt;upl A&lt;/div&gt;&lt;div style=&quot;text-align: left&quot;&gt;upl B&lt;/div&gt;" style="html=1;fontSize=12;fillColor=#FFFFCC;" parent="8ZErG4yBXKm2X5zu9cKU-1" vertex="1">
                    <mxGeometry x="466" y="2099" width="421" height="92" as="geometry"/>
                </mxCell>
                <mxCell id="KeDDKEuDdWPWOJVIcQrJ-14" value="&lt;font style=&quot;font-size: 12px&quot;&gt;Enter ---&amp;gt; [1]&amp;nbsp;&lt;/font&gt;" style="text;html=1;align=center;verticalAlign=middle;resizable=0;points=[];autosize=1;strokeColor=none;fillColor=none;fontSize=18;" parent="8ZErG4yBXKm2X5zu9cKU-1" vertex="1">
                    <mxGeometry x="573" y="2061" width="81" height="28" as="geometry"/>
                </mxCell>
                <mxCell id="KeDDKEuDdWPWOJVIcQrJ-15" value="&lt;b&gt;Menu [M]&lt;/b&gt;&amp;nbsp;I&amp;nbsp;&lt;b&gt;Verkbeiðnir[V]&lt;/b&gt;&amp;nbsp;I&amp;nbsp;&lt;b&gt;Fasteignir [F]&lt;/b&gt;&amp;nbsp;I&amp;nbsp;&lt;b&gt;Verktakar[V]&lt;/b&gt;&amp;nbsp;I&lt;br&gt;&lt;div style=&quot;text-align: left&quot;&gt;&lt;b&gt;Verkbeiðnir&lt;/b&gt;:&lt;/div&gt;&lt;div style=&quot;text-align: left&quot;&gt;&lt;b&gt;Opnar verkbeiðnir:&lt;/b&gt;&lt;/div&gt;&lt;div style=&quot;text-align: left&quot;&gt;&lt;b&gt;Tilbúnar (ósamþykktar) [A]&lt;/b&gt;&lt;/div&gt;&lt;div style=&quot;text-align: left&quot;&gt;&lt;b&gt;Verkbeiðnir í vinnslu [B]&lt;/b&gt;&lt;/div&gt;&lt;div style=&quot;text-align: left&quot;&gt;&lt;b&gt;&lt;br&gt;&lt;/b&gt;&lt;/div&gt;" style="html=1;fontSize=12;fillColor=#FFFFCC;" parent="8ZErG4yBXKm2X5zu9cKU-1" vertex="1">
                    <mxGeometry x="471" y="1227" width="395" height="99" as="geometry"/>
                </mxCell>
                <mxCell id="KeDDKEuDdWPWOJVIcQrJ-16" value="&lt;b&gt;Menu [M]&lt;/b&gt;&amp;nbsp;I&amp;nbsp;&lt;b&gt;Verkbeiðnir[V]&lt;/b&gt;&amp;nbsp;I&amp;nbsp;&lt;b&gt;Fasteignir [F]&lt;/b&gt;&amp;nbsp;I&amp;nbsp;&lt;b&gt;Verktakar[V]&lt;/b&gt;&amp;nbsp;I&lt;br&gt;&lt;div style=&quot;text-align: left&quot;&gt;&lt;b&gt;Verkbeiðnir&lt;/b&gt;:&lt;/div&gt;&lt;div style=&quot;text-align: left&quot;&gt;&lt;b&gt;Lokaðar verkbeiðnir:&lt;/b&gt;&lt;/div&gt;&lt;div style=&quot;text-align: left&quot;&gt;&lt;div&gt;verkb A [1]&lt;br&gt;&lt;/div&gt;&lt;div&gt;verkb B [2]&lt;/div&gt;&lt;/div&gt;&lt;div style=&quot;text-align: left&quot;&gt;&lt;b&gt;&lt;br&gt;&lt;/b&gt;&lt;/div&gt;" style="html=1;fontSize=12;fillColor=#FFFFCC;" parent="8ZErG4yBXKm2X5zu9cKU-1" vertex="1">
                    <mxGeometry x="468" y="1479" width="395" height="99" as="geometry"/>
                </mxCell>
                <mxCell id="KeDDKEuDdWPWOJVIcQrJ-17" value="&lt;b&gt;Menu [M]&lt;/b&gt;&amp;nbsp;I&amp;nbsp;&lt;b&gt;Verkbeiðnir[V]&lt;/b&gt;&amp;nbsp;I&amp;nbsp;&lt;b&gt;Fasteignir [F]&lt;/b&gt;&amp;nbsp;I&amp;nbsp;&lt;b&gt;Verktakar[V]&lt;/b&gt;&amp;nbsp;I&lt;br&gt;&lt;div style=&quot;text-align: left&quot;&gt;&lt;b&gt;Verkbeiðnir&lt;/b&gt;:&lt;/div&gt;&lt;div style=&quot;text-align: left&quot;&gt;&lt;b&gt;Komandi Verkbeiðnir:&lt;/b&gt;&lt;/div&gt;&lt;div style=&quot;text-align: left&quot;&gt;&lt;div&gt;verkb A [1]&lt;br&gt;&lt;/div&gt;&lt;div&gt;verkb B [2]&lt;/div&gt;&lt;/div&gt;&lt;div style=&quot;text-align: left&quot;&gt;&lt;b&gt;&lt;br&gt;&lt;/b&gt;&lt;/div&gt;" style="html=1;fontSize=12;fillColor=#FFFFCC;" parent="8ZErG4yBXKm2X5zu9cKU-1" vertex="1">
                    <mxGeometry x="468" y="1616" width="395" height="99" as="geometry"/>
                </mxCell>
                <mxCell id="KeDDKEuDdWPWOJVIcQrJ-18" value="&lt;b&gt;Menu [M]&lt;/b&gt;&amp;nbsp;I&amp;nbsp;&lt;b&gt;Verkbeiðnir[V]&lt;/b&gt;&amp;nbsp;I&amp;nbsp;&lt;b&gt;Fasteignir [F]&lt;/b&gt;&amp;nbsp;I&amp;nbsp;&lt;b&gt;Verktakar[V]&lt;/b&gt;&amp;nbsp;I&lt;br&gt;&lt;div style=&quot;text-align: left&quot;&gt;&lt;b&gt;Verkbeiðnir&lt;/b&gt;:&lt;/div&gt;&lt;div style=&quot;text-align: left&quot;&gt;&lt;b&gt;Skrá verkbeiðnir:&lt;/b&gt;&lt;/div&gt;&lt;div style=&quot;text-align: left&quot;&gt;&lt;b&gt;upl 1 [1]&lt;/b&gt;&lt;/div&gt;&lt;div style=&quot;text-align: left&quot;&gt;&lt;b&gt;upl 2 [2]&lt;/b&gt;&lt;/div&gt;&lt;div style=&quot;text-align: left&quot;&gt;&lt;b&gt;upl 3 [3]&lt;/b&gt;&lt;/div&gt;&lt;div style=&quot;text-align: left&quot;&gt;&lt;b&gt;&lt;br&gt;&lt;/b&gt;&lt;/div&gt;" style="html=1;fontSize=12;fillColor=#FFFFCC;" parent="8ZErG4yBXKm2X5zu9cKU-1" vertex="1">
                    <mxGeometry x="469" y="1755" width="395" height="99" as="geometry"/>
                </mxCell>
                <mxCell id="KeDDKEuDdWPWOJVIcQrJ-19" value="&lt;font style=&quot;font-size: 12px&quot;&gt;Enter ---&amp;gt; [A]&amp;nbsp;&lt;/font&gt;" style="text;html=1;align=center;verticalAlign=middle;resizable=0;points=[];autosize=1;strokeColor=none;fillColor=none;fontSize=18;" parent="8ZErG4yBXKm2X5zu9cKU-1" vertex="1">
                    <mxGeometry x="132" y="1303" width="83" height="28" as="geometry"/>
                </mxCell>
                <mxCell id="KeDDKEuDdWPWOJVIcQrJ-20" value="&lt;font style=&quot;font-size: 12px&quot;&gt;Enter ---&amp;gt; [B]&amp;nbsp;&lt;/font&gt;" style="text;html=1;align=center;verticalAlign=middle;resizable=0;points=[];autosize=1;strokeColor=none;fillColor=none;fontSize=18;" parent="8ZErG4yBXKm2X5zu9cKU-1" vertex="1">
                    <mxGeometry x="598" y="1441" width="83" height="28" as="geometry"/>
                </mxCell>
                <mxCell id="KeDDKEuDdWPWOJVIcQrJ-21" value="&lt;font style=&quot;font-size: 12px&quot;&gt;Enter ---&amp;gt; [C]&amp;nbsp;&lt;/font&gt;" style="text;html=1;align=center;verticalAlign=middle;resizable=0;points=[];autosize=1;strokeColor=none;fillColor=none;fontSize=18;" parent="8ZErG4yBXKm2X5zu9cKU-1" vertex="1">
                    <mxGeometry x="598" y="1581" width="83" height="28" as="geometry"/>
                </mxCell>
                <mxCell id="KeDDKEuDdWPWOJVIcQrJ-22" value="&lt;font style=&quot;font-size: 12px&quot;&gt;Enter ---&amp;gt; [D]&amp;nbsp;&lt;/font&gt;" style="text;html=1;align=center;verticalAlign=middle;resizable=0;points=[];autosize=1;strokeColor=none;fillColor=none;fontSize=18;" parent="8ZErG4yBXKm2X5zu9cKU-1" vertex="1">
                    <mxGeometry x="591" y="1723" width="83" height="28" as="geometry"/>
                </mxCell>
                <mxCell id="KeDDKEuDdWPWOJVIcQrJ-23" value="&lt;b&gt;Menu [M]&lt;/b&gt;&amp;nbsp;I&amp;nbsp;&lt;b&gt;Verkbeiðnir[V]&lt;/b&gt;&amp;nbsp;I&amp;nbsp;&lt;b&gt;Fasteignir [F]&lt;/b&gt;&amp;nbsp;I&amp;nbsp;&lt;b&gt;Verktakar[V]&lt;/b&gt;&amp;nbsp;I&lt;br&gt;&lt;div style=&quot;text-align: left&quot;&gt;&lt;b&gt;Verkbeiðnir&lt;/b&gt;:&lt;/div&gt;&lt;div style=&quot;text-align: left&quot;&gt;&lt;b&gt;Opnar verkbeiðnir:&lt;/b&gt;&lt;/div&gt;&lt;div style=&quot;text-align: left&quot;&gt;&lt;b&gt;Tilbúnar (ósamþykktar) :&lt;/b&gt;&lt;/div&gt;&lt;div style=&quot;text-align: left&quot;&gt;verkb A [1]&lt;/div&gt;&lt;div style=&quot;text-align: left&quot;&gt;verkb B [2]&lt;/div&gt;&lt;div style=&quot;text-align: left&quot;&gt;&lt;b&gt;&lt;br&gt;&lt;/b&gt;&lt;/div&gt;" style="html=1;fontSize=12;fillColor=#FFFFCC;" parent="8ZErG4yBXKm2X5zu9cKU-1" vertex="1">
                    <mxGeometry x="940" y="1225" width="395" height="99" as="geometry"/>
                </mxCell>
                <mxCell id="KeDDKEuDdWPWOJVIcQrJ-24" value="&lt;font style=&quot;font-size: 12px&quot;&gt;Enter ---&amp;gt; [A]&amp;nbsp;&lt;/font&gt;" style="text;html=1;align=center;verticalAlign=middle;resizable=0;points=[];autosize=1;strokeColor=none;fillColor=none;fontSize=18;" parent="8ZErG4yBXKm2X5zu9cKU-1" vertex="1">
                    <mxGeometry x="619" y="1298" width="83" height="28" as="geometry"/>
                </mxCell>
                <mxCell id="KeDDKEuDdWPWOJVIcQrJ-25" value="&lt;font style=&quot;font-size: 12px&quot;&gt;Enter ---&amp;gt; [B]&amp;nbsp;&lt;/font&gt;" style="text;html=1;align=center;verticalAlign=middle;resizable=0;points=[];autosize=1;strokeColor=none;fillColor=none;fontSize=18;" parent="8ZErG4yBXKm2X5zu9cKU-1" vertex="1">
                    <mxGeometry x="1075" y="1331" width="83" height="28" as="geometry"/>
                </mxCell>
                <mxCell id="KeDDKEuDdWPWOJVIcQrJ-26" value="&lt;b&gt;Menu [M]&lt;/b&gt;&amp;nbsp;I&amp;nbsp;&lt;b&gt;Verkbeiðnir[V]&lt;/b&gt;&amp;nbsp;I&amp;nbsp;&lt;b&gt;Fasteignir [F]&lt;/b&gt;&amp;nbsp;I&amp;nbsp;&lt;b&gt;Verktakar[V]&lt;/b&gt;&amp;nbsp;I&lt;br&gt;&lt;div style=&quot;text-align: left&quot;&gt;&lt;b&gt;Verkbeiðnir&lt;/b&gt;:&lt;/div&gt;&lt;div style=&quot;text-align: left&quot;&gt;&lt;b&gt;Opnar verkbeiðnir:&lt;/b&gt;&lt;/div&gt;&lt;b&gt;&lt;div style=&quot;text-align: left&quot;&gt;&lt;b&gt;Verkbeiðnir í vinnslu:&lt;/b&gt;&lt;/div&gt;&lt;/b&gt;&lt;div style=&quot;text-align: left&quot;&gt;&lt;span&gt;verkb A [1]&lt;/span&gt;&lt;br&gt;&lt;/div&gt;&lt;div style=&quot;text-align: left&quot;&gt;verkb B [2]&lt;/div&gt;&lt;div style=&quot;text-align: left&quot;&gt;&lt;b&gt;&lt;br&gt;&lt;/b&gt;&lt;/div&gt;" style="html=1;fontSize=12;fillColor=#FFFFCC;" parent="8ZErG4yBXKm2X5zu9cKU-1" vertex="1">
                    <mxGeometry x="944" y="1362" width="395" height="99" as="geometry"/>
                </mxCell>
                <mxCell id="C_6352uwxd3pAam-tobJ-0" value="&lt;b&gt;&lt;font style=&quot;font-size: 24px&quot;&gt;Útlitshönnun / Wireframe&lt;/font&gt;&lt;/b&gt;" style="text;html=1;align=center;verticalAlign=middle;resizable=0;points=[];autosize=1;strokeColor=none;fillColor=none;fontSize=12;" parent="8ZErG4yBXKm2X5zu9cKU-1" vertex="1">
                    <mxGeometry x="122" y="986" width="295" height="23" as="geometry"/>
                </mxCell>
                <mxCell id="TK9_CK5o48mZlI4PwYxN-0" value="&lt;font style=&quot;font-size: 18px&quot;&gt;&lt;b&gt;Manager&lt;br&gt;&lt;/b&gt;&lt;/font&gt;" style="text;html=1;align=center;verticalAlign=middle;resizable=0;points=[];autosize=1;strokeColor=none;fillColor=none;fontSize=12;" parent="8ZErG4yBXKm2X5zu9cKU-1" vertex="1">
                    <mxGeometry x="-525" y="2423" width="84" height="20" as="geometry"/>
                </mxCell>
                <mxCell id="TK9_CK5o48mZlI4PwYxN-1" value="&lt;b&gt;Log in:&lt;br&gt;&lt;div style=&quot;text-align: left&quot;&gt;&lt;b&gt;Log in as Employee [ E ]&lt;/b&gt;&lt;/div&gt;&lt;/b&gt;&lt;b&gt;&lt;div style=&quot;text-align: left&quot;&gt;&lt;b&gt;Log in as Maneger[ M ]&lt;/b&gt;&lt;/div&gt;&lt;/b&gt;" style="html=1;fontSize=12;fillColor=#FFFFCC;" parent="8ZErG4yBXKm2X5zu9cKU-1" vertex="1">
                    <mxGeometry x="-630" y="2475" width="423" height="55" as="geometry"/>
                </mxCell>
                <mxCell id="TK9_CK5o48mZlI4PwYxN-2" value="&lt;b&gt;Menu&lt;/b&gt;:&amp;nbsp; I &lt;b&gt;Stafsmenn[ S ]&lt;/b&gt; I &lt;b&gt;Fasteignir&amp;nbsp;[ F ]&amp;nbsp;I Verkbeiðnir&amp;nbsp;[ V ] I Verktakar [C] I&lt;/b&gt;" style="html=1;fontSize=12;fillColor=#FFFFCC;" parent="8ZErG4yBXKm2X5zu9cKU-1" vertex="1">
                    <mxGeometry x="-639" y="2572" width="432" height="84" as="geometry"/>
                </mxCell>
                <mxCell id="TK9_CK5o48mZlI4PwYxN-3" value="&lt;font style=&quot;font-size: 12px&quot;&gt;Enter ---&amp;gt; Manager [M]&amp;nbsp;&lt;/font&gt;" style="text;html=1;align=center;verticalAlign=middle;resizable=0;points=[];autosize=1;strokeColor=none;fillColor=none;fontSize=18;" parent="8ZErG4yBXKm2X5zu9cKU-1" vertex="1">
                    <mxGeometry x="-493" y="2542" width="135" height="28" as="geometry"/>
                </mxCell>
                <mxCell id="TK9_CK5o48mZlI4PwYxN-4" value="&lt;b&gt;Menu [M]&lt;/b&gt;&amp;nbsp;I &lt;b&gt;Verkbeiðnir[V]&lt;/b&gt; I &lt;b&gt;Fasteignir [F]&lt;/b&gt; I &lt;b&gt;Verktakar[V]&lt;/b&gt; I&lt;br&gt;&lt;div style=&quot;text-align: left&quot;&gt;&lt;b&gt;Fasteignir&lt;/b&gt;&lt;span&gt;:&lt;/span&gt;&lt;/div&gt;&lt;div style=&quot;text-align: left&quot;&gt;&lt;b&gt;Skrá fasteign [A]&lt;/b&gt;&lt;/div&gt;&lt;div style=&quot;text-align: left&quot;&gt;&lt;b&gt;Yfirlit fasteigna [B]&lt;/b&gt;&lt;/div&gt;" style="html=1;fontSize=12;fillColor=#FFFFCC;" parent="8ZErG4yBXKm2X5zu9cKU-1" vertex="1">
                    <mxGeometry x="-155" y="2836" width="421" height="92" as="geometry"/>
                </mxCell>
                <mxCell id="TK9_CK5o48mZlI4PwYxN-5" value="&lt;font style=&quot;font-size: 12px&quot;&gt;Enter ---&amp;gt; Fasteignir [F]&amp;nbsp;&lt;/font&gt;" style="text;html=1;align=center;verticalAlign=middle;resizable=0;points=[];autosize=1;strokeColor=none;fillColor=none;fontSize=18;" parent="8ZErG4yBXKm2X5zu9cKU-1" vertex="1">
                    <mxGeometry x="-98.5" y="2801" width="138" height="28" as="geometry"/>
                </mxCell>
                <mxCell id="TK9_CK5o48mZlI4PwYxN-6" value="&lt;b&gt;Menu [M]&lt;/b&gt;&amp;nbsp;I &lt;b&gt;Verkbeiðnir[V]&lt;/b&gt; I &lt;b&gt;Fasteignir [F]&lt;/b&gt; I &lt;b&gt;Verktakar[V]&lt;/b&gt; I&lt;br&gt;&lt;div style=&quot;text-align: left&quot;&gt;&lt;b&gt;Verkbeiðnir&lt;/b&gt;&lt;span&gt;:&lt;/span&gt;&lt;/div&gt;&lt;div style=&quot;text-align: left&quot;&gt;&lt;b&gt;&lt;span&gt;Opnar verkbeiðnir [A]&lt;/span&gt;&lt;br&gt;&lt;/b&gt;&lt;/div&gt;&lt;div style=&quot;text-align: left&quot;&gt;&lt;b&gt;Lokaðar verkbeiðnir [B]&lt;/b&gt;&lt;/div&gt;&lt;div style=&quot;text-align: left&quot;&gt;&lt;b&gt;Komandi verkefni [C]&lt;/b&gt;&lt;/div&gt;&lt;div style=&quot;text-align: left&quot;&gt;&lt;b&gt;Skrá verkbeiðni [D]&lt;/b&gt;&lt;/div&gt;&lt;div style=&quot;text-align: left&quot;&gt;&lt;b&gt;Útistandandi verkbeiðnir [E]&lt;/b&gt;&lt;/div&gt;&lt;div style=&quot;text-align: left&quot;&gt;&lt;br&gt;&lt;/div&gt;" style="html=1;fontSize=12;fillColor=#FFFFCC;" parent="8ZErG4yBXKm2X5zu9cKU-1" vertex="1">
                    <mxGeometry x="-165" y="3138" width="371" height="122" as="geometry"/>
                </mxCell>
                <mxCell id="TK9_CK5o48mZlI4PwYxN-7" value="&lt;font style=&quot;font-size: 12px&quot;&gt;Enter ---&amp;gt; Verkbeiðnir [V]&amp;nbsp;&lt;/font&gt;" style="text;html=1;align=center;verticalAlign=middle;resizable=0;points=[];autosize=1;strokeColor=none;fillColor=none;fontSize=18;" parent="8ZErG4yBXKm2X5zu9cKU-1" vertex="1">
                    <mxGeometry x="-117" y="3106" width="146" height="28" as="geometry"/>
                </mxCell>
                <mxCell id="TK9_CK5o48mZlI4PwYxN-8" value="&lt;b&gt;Menu [M]&lt;/b&gt;&amp;nbsp;I &lt;b&gt;Verkbeiðnir[V]&lt;/b&gt; I &lt;b&gt;Fasteignir [F]&lt;/b&gt; I &lt;b&gt;Verktakar[V]&lt;/b&gt; I&lt;br&gt;&lt;div style=&quot;text-align: left&quot;&gt;&lt;b&gt;Starfsmenn:&lt;/b&gt;&lt;/div&gt;&lt;div style=&quot;text-align: left&quot;&gt;&lt;b&gt;Skrá starfsmann [A]&lt;/b&gt;&lt;/div&gt;&lt;div style=&quot;text-align: left&quot;&gt;&lt;b&gt;Yfirlit starfsmanna [B]&lt;/b&gt;&lt;/div&gt;" style="html=1;fontSize=12;fillColor=#FFFFCC;" parent="8ZErG4yBXKm2X5zu9cKU-1" vertex="1">
                    <mxGeometry x="-152" y="2563" width="421" height="92" as="geometry"/>
                </mxCell>
                <mxCell id="TK9_CK5o48mZlI4PwYxN-9" value="&lt;font style=&quot;font-size: 12px&quot;&gt;Enter ---&amp;gt; Starfsmenn [S]&amp;nbsp;&lt;/font&gt;" style="text;html=1;align=center;verticalAlign=middle;resizable=0;points=[];autosize=1;strokeColor=none;fillColor=none;fontSize=18;" parent="8ZErG4yBXKm2X5zu9cKU-1" vertex="1">
                    <mxGeometry x="-97" y="2521" width="147" height="28" as="geometry"/>
                </mxCell>
                <mxCell id="TK9_CK5o48mZlI4PwYxN-10" value="&lt;b&gt;Menu [M]&lt;/b&gt;&amp;nbsp;I &lt;b&gt;Verkbeiðnir[V]&lt;/b&gt; I &lt;b&gt;Fasteignir [F]&lt;/b&gt; I &lt;b&gt;Verktakar[V]&lt;/b&gt; I&lt;br&gt;&lt;div style=&quot;text-align: left&quot;&gt;&lt;b&gt;Starfsmenn:&lt;/b&gt;&lt;/div&gt;&lt;div style=&quot;text-align: left&quot;&gt;&lt;b&gt;Skrá starfsmann:&lt;/b&gt;&lt;/div&gt;&lt;div style=&quot;text-align: left&quot;&gt;Upl A&lt;/div&gt;&lt;div style=&quot;text-align: left&quot;&gt;Upl B&lt;/div&gt;" style="html=1;fontSize=12;fillColor=#FFFFCC;" parent="8ZErG4yBXKm2X5zu9cKU-1" vertex="1">
                    <mxGeometry x="310" y="2563" width="421" height="92" as="geometry"/>
                </mxCell>
                <mxCell id="TK9_CK5o48mZlI4PwYxN-11" value="&lt;font style=&quot;font-size: 12px&quot;&gt;Enter ---&amp;gt; [A]&amp;nbsp;&lt;/font&gt;" style="text;html=1;align=center;verticalAlign=middle;resizable=0;points=[];autosize=1;strokeColor=none;fillColor=none;fontSize=18;" parent="8ZErG4yBXKm2X5zu9cKU-1" vertex="1">
                    <mxGeometry x="467" y="2521" width="83" height="28" as="geometry"/>
                </mxCell>
                <mxCell id="TK9_CK5o48mZlI4PwYxN-12" value="&lt;b&gt;Menu [M]&lt;/b&gt;&amp;nbsp;I &lt;b&gt;Verkbeiðnir[V]&lt;/b&gt; I &lt;b&gt;Fasteignir [F]&lt;/b&gt; I &lt;b&gt;Verktakar[V]&lt;/b&gt; I&lt;br&gt;&lt;div style=&quot;text-align: left&quot;&gt;&lt;b&gt;Starfsmenn:&lt;/b&gt;&lt;/div&gt;&lt;b&gt;&lt;div style=&quot;text-align: left&quot;&gt;&lt;b&gt;Yfirlit starfsmanna&lt;/b&gt;&lt;b&gt;:&lt;/b&gt;&lt;/div&gt;&lt;/b&gt;&lt;div style=&quot;text-align: left&quot;&gt;Starfsmaður A [1]&lt;/div&gt;&lt;div style=&quot;text-align: left&quot;&gt;Starfsmaður B [2]&lt;/div&gt;" style="html=1;fontSize=12;fillColor=#FFFFCC;" parent="8ZErG4yBXKm2X5zu9cKU-1" vertex="1">
                    <mxGeometry x="310" y="2700" width="421" height="92" as="geometry"/>
                </mxCell>
                <mxCell id="TK9_CK5o48mZlI4PwYxN-13" value="" style="edgeStyle=orthogonalEdgeStyle;rounded=0;orthogonalLoop=1;jettySize=auto;html=1;fontSize=12;" parent="8ZErG4yBXKm2X5zu9cKU-1" source="TK9_CK5o48mZlI4PwYxN-14" target="TK9_CK5o48mZlI4PwYxN-12" edge="1">
                    <mxGeometry relative="1" as="geometry"/>
                </mxCell>
                <mxCell id="TK9_CK5o48mZlI4PwYxN-14" value="&lt;font style=&quot;font-size: 12px&quot;&gt;Enter ---&amp;gt; [B]&amp;nbsp;&lt;/font&gt;" style="text;html=1;align=center;verticalAlign=middle;resizable=0;points=[];autosize=1;strokeColor=none;fillColor=none;fontSize=18;" parent="8ZErG4yBXKm2X5zu9cKU-1" vertex="1">
                    <mxGeometry x="463" y="2664" width="83" height="28" as="geometry"/>
                </mxCell>
                <mxCell id="TK9_CK5o48mZlI4PwYxN-15" value="&lt;b&gt;Menu [M]&lt;/b&gt;&amp;nbsp;I &lt;b&gt;Verkbeiðnir[V]&lt;/b&gt; I &lt;b&gt;Fasteignir [F]&lt;/b&gt; I &lt;b&gt;Verktakar[V]&lt;/b&gt; I&lt;br&gt;&lt;div style=&quot;text-align: left&quot;&gt;&lt;b&gt;Starfsmenn:&lt;/b&gt;&lt;/div&gt;&lt;b&gt;&lt;div style=&quot;text-align: left&quot;&gt;&lt;b&gt;Yfirlit starfsmanna&lt;/b&gt;&lt;b&gt;:&lt;/b&gt;&lt;/div&gt;&lt;/b&gt;&lt;div style=&quot;text-align: left&quot;&gt;Starfsmaður A:&lt;/div&gt;&lt;div style=&quot;text-align: left&quot;&gt;upl A [1]&lt;/div&gt;&lt;div style=&quot;text-align: left&quot;&gt;upl B [2]&lt;/div&gt;" style="html=1;fontSize=12;fillColor=#FFFFCC;" parent="8ZErG4yBXKm2X5zu9cKU-1" vertex="1">
                    <mxGeometry x="777" y="2700" width="421" height="92" as="geometry"/>
                </mxCell>
                <mxCell id="TK9_CK5o48mZlI4PwYxN-16" value="&lt;font style=&quot;font-size: 12px&quot;&gt;Enter ---&amp;gt; [1]&amp;nbsp;&lt;/font&gt;" style="text;html=1;align=center;verticalAlign=middle;resizable=0;points=[];autosize=1;strokeColor=none;fillColor=none;fontSize=18;" parent="8ZErG4yBXKm2X5zu9cKU-1" vertex="1">
                    <mxGeometry x="938" y="2661" width="81" height="28" as="geometry"/>
                </mxCell>
                <mxCell id="TK9_CK5o48mZlI4PwYxN-17" value="&lt;b&gt;Menu [M]&lt;/b&gt;&amp;nbsp;I &lt;b&gt;Verkbeiðnir[V]&lt;/b&gt; I &lt;b&gt;Fasteignir [F]&lt;/b&gt; I &lt;b&gt;Verktakar[V]&lt;/b&gt; I&lt;br&gt;&lt;div style=&quot;text-align: left&quot;&gt;&lt;b&gt;Fasteignir&lt;/b&gt;&lt;span&gt;:&lt;/span&gt;&lt;/div&gt;&lt;div style=&quot;text-align: left&quot;&gt;&lt;b&gt;Skrá fasteign:&lt;/b&gt;&lt;/div&gt;&lt;div style=&quot;text-align: left&quot;&gt;upl a [1]&lt;/div&gt;&lt;div style=&quot;text-align: left&quot;&gt;upl b [2]&lt;/div&gt;" style="html=1;fontSize=12;fillColor=#FFFFCC;" parent="8ZErG4yBXKm2X5zu9cKU-1" vertex="1">
                    <mxGeometry x="303" y="2839" width="421" height="92" as="geometry"/>
                </mxCell>
                <mxCell id="TK9_CK5o48mZlI4PwYxN-18" value="&lt;font style=&quot;font-size: 12px&quot;&gt;Enter ---&amp;gt; [A]&amp;nbsp;&lt;/font&gt;" style="text;html=1;align=center;verticalAlign=middle;resizable=0;points=[];autosize=1;strokeColor=none;fillColor=none;fontSize=18;" parent="8ZErG4yBXKm2X5zu9cKU-1" vertex="1">
                    <mxGeometry x="457" y="2801" width="83" height="28" as="geometry"/>
                </mxCell>
                <mxCell id="TK9_CK5o48mZlI4PwYxN-19" value="&lt;b&gt;Menu [M]&lt;/b&gt;&amp;nbsp;I &lt;b&gt;Verkbeiðnir[V]&lt;/b&gt; I &lt;b&gt;Fasteignir [F]&lt;/b&gt; I &lt;b&gt;Verktakar[V]&lt;/b&gt; I&lt;br&gt;&lt;div style=&quot;text-align: left&quot;&gt;&lt;b&gt;Fasteignir&lt;/b&gt;&lt;span&gt;:&lt;/span&gt;&lt;/div&gt;&lt;div style=&quot;text-align: left&quot;&gt;&lt;b&gt;Yfirlit Fasteigna:&lt;/b&gt;&lt;/div&gt;&lt;div style=&quot;text-align: left&quot;&gt;Fasteign a [1]&lt;/div&gt;&lt;div style=&quot;text-align: left&quot;&gt;Fasteign b [2]&lt;/div&gt;" style="html=1;fontSize=12;fillColor=#FFFFCC;" parent="8ZErG4yBXKm2X5zu9cKU-1" vertex="1">
                    <mxGeometry x="305" y="2979" width="421" height="92" as="geometry"/>
                </mxCell>
                <mxCell id="TK9_CK5o48mZlI4PwYxN-20" value="&lt;font style=&quot;font-size: 12px&quot;&gt;Enter ---&amp;gt; [B]&amp;nbsp;&lt;/font&gt;" style="text;html=1;align=center;verticalAlign=middle;resizable=0;points=[];autosize=1;strokeColor=none;fillColor=none;fontSize=18;" parent="8ZErG4yBXKm2X5zu9cKU-1" vertex="1">
                    <mxGeometry x="459" y="2941" width="83" height="28" as="geometry"/>
                </mxCell>
                <mxCell id="TK9_CK5o48mZlI4PwYxN-21" value="&lt;b&gt;Menu [M]&lt;/b&gt;&amp;nbsp;I &lt;b&gt;Verkbeiðnir[V]&lt;/b&gt; I &lt;b&gt;Fasteignir [F]&lt;/b&gt; I &lt;b&gt;Verktakar[V]&lt;/b&gt; I&lt;br&gt;&lt;div style=&quot;text-align: left&quot;&gt;&lt;b&gt;Fasteignir&lt;/b&gt;&lt;span&gt;:&lt;/span&gt;&lt;/div&gt;&lt;div style=&quot;text-align: left&quot;&gt;&lt;b&gt;Yfirlit Fasteigna:&lt;/b&gt;&lt;/div&gt;&lt;div style=&quot;text-align: left&quot;&gt;&lt;b&gt;Fasteign a:&lt;/b&gt;&lt;/div&gt;&lt;div style=&quot;text-align: left&quot;&gt;&lt;div&gt;upl a [1]&lt;/div&gt;&lt;div&gt;upl b [2]&lt;/div&gt;&lt;/div&gt;&lt;div style=&quot;text-align: left&quot;&gt;&lt;b&gt;&lt;br&gt;&lt;/b&gt;&lt;/div&gt;" style="html=1;fontSize=12;fillColor=#FFFFCC;" parent="8ZErG4yBXKm2X5zu9cKU-1" vertex="1">
                    <mxGeometry x="758" y="2979" width="421" height="109" as="geometry"/>
                </mxCell>
                <mxCell id="TK9_CK5o48mZlI4PwYxN-22" value="&lt;font style=&quot;font-size: 12px&quot;&gt;Enter ---&amp;gt; [1]&amp;nbsp;&lt;/font&gt;" style="text;html=1;align=center;verticalAlign=middle;resizable=0;points=[];autosize=1;strokeColor=none;fillColor=none;fontSize=18;" parent="8ZErG4yBXKm2X5zu9cKU-1" vertex="1">
                    <mxGeometry x="937" y="2941" width="81" height="28" as="geometry"/>
                </mxCell>
                <mxCell id="TK9_CK5o48mZlI4PwYxN-23" value="&lt;b&gt;Menu [M]&lt;/b&gt;&amp;nbsp;I &lt;b&gt;Verkbeiðnir[V]&lt;/b&gt; I &lt;b&gt;Fasteignir [F]&lt;/b&gt; I &lt;b&gt;Verktakar[V]&lt;/b&gt; I&lt;br&gt;&lt;div style=&quot;text-align: left&quot;&gt;&lt;b&gt;Verkbeiðnir&lt;/b&gt;&lt;span&gt;:&lt;/span&gt;&lt;/div&gt;&lt;div style=&quot;text-align: left&quot;&gt;&lt;b&gt;&lt;span&gt;Opnar verkbeiðnir:&lt;/span&gt;&lt;/b&gt;&lt;/div&gt;&lt;div style=&quot;text-align: left&quot;&gt;verkbeiðnir A [1]&lt;/div&gt;&lt;div style=&quot;text-align: left&quot;&gt;Verkbeiðnir B [2]&lt;/div&gt;&lt;div style=&quot;text-align: left&quot;&gt;&lt;br&gt;&lt;/div&gt;" style="html=1;fontSize=12;fillColor=#FFFFCC;" parent="8ZErG4yBXKm2X5zu9cKU-1" vertex="1">
                    <mxGeometry x="305" y="3138" width="345" height="91" as="geometry"/>
                </mxCell>
                <mxCell id="TK9_CK5o48mZlI4PwYxN-24" value="&lt;font style=&quot;font-size: 12px&quot;&gt;Enter ---&amp;gt; [A]&amp;nbsp;&lt;/font&gt;" style="text;html=1;align=center;verticalAlign=middle;resizable=0;points=[];autosize=1;strokeColor=none;fillColor=none;fontSize=18;" parent="8ZErG4yBXKm2X5zu9cKU-1" vertex="1">
                    <mxGeometry x="404" y="3103" width="83" height="28" as="geometry"/>
                </mxCell>
                <mxCell id="TK9_CK5o48mZlI4PwYxN-25" value="&lt;b&gt;Menu [M]&lt;/b&gt;&amp;nbsp;I &lt;b&gt;Verkbeiðnir[V]&lt;/b&gt; I &lt;b&gt;Fasteignir [F]&lt;/b&gt; I &lt;b&gt;Verktakar[V]&lt;/b&gt; I&lt;br&gt;&lt;div style=&quot;text-align: left&quot;&gt;&lt;b&gt;Verkbeiðnir&lt;/b&gt;&lt;span&gt;:&lt;/span&gt;&lt;/div&gt;&lt;div style=&quot;text-align: left&quot;&gt;&lt;b&gt;&lt;span&gt;Opnar verkbeiðnir:&lt;/span&gt;&lt;/b&gt;&lt;/div&gt;&lt;div style=&quot;text-align: left&quot;&gt;&lt;b&gt;&lt;span&gt;Verkbeiðni A:&lt;/span&gt;&lt;/b&gt;&lt;/div&gt;&lt;div style=&quot;text-align: left&quot;&gt;loka [L]&lt;/div&gt;&lt;div style=&quot;text-align: left&quot;&gt;Skrá Verkskýrslu [S]&lt;/div&gt;&lt;span style=&quot;color: rgba(0 , 0 , 0 , 0) ; font-family: monospace ; font-size: 0px&quot;&gt;%3CmxGraphModel%3E%3Croot%3E%3CmxCell%20id%3D%220%22%2F%3E%3CmxCell%20id%3D%221%22%20parent%3D%220%22%2F%3E%3CmxCell%20id%3D%222%22%20value%3D%22%26lt%3Bfont%20style%3D%26quot%3Bfont-size%3A%2012px%26quot%3B%26gt%3BEnter%20---%26amp%3Bgt%3B%20%5BA%5D%26amp%3Bnbsp%3B%26lt%3B%2Ffont%26gt%3B%22%20style%3D%22text%3Bhtml%3D1%3Balign%3Dcenter%3BverticalAlign%3Dmiddle%3Bresizable%3D0%3Bpoints%3D%5B%5D%3Bautosize%3D1%3BstrokeColor%3Dnone%3BfillColor%3Dnone%3BfontSize%3D18%3B%22%20vertex%3D%221%22%20parent%3D%221%22%3E%3CmxGeometry%20x%3D%222223%22%20y%3D%221777%22%20width%3D%2283%22%20height%3D%2228%22%20as%3D%22geometry%22%2F%3E%3C%2FmxCell%3E%3C%2Froot%3E%3C%&lt;br&gt;&lt;/span&gt;" style="html=1;fontSize=12;fillColor=#FFFFCC;" parent="8ZErG4yBXKm2X5zu9cKU-1" vertex="1">
                    <mxGeometry x="715" y="3134" width="345" height="104" as="geometry"/>
                </mxCell>
                <mxCell id="TK9_CK5o48mZlI4PwYxN-26" value="&lt;font style=&quot;font-size: 12px&quot;&gt;Enter ---&amp;gt; [1]&amp;nbsp;&lt;/font&gt;" style="text;html=1;align=center;verticalAlign=middle;resizable=0;points=[];autosize=1;strokeColor=none;fillColor=none;fontSize=18;" parent="8ZErG4yBXKm2X5zu9cKU-1" vertex="1">
                    <mxGeometry x="828" y="3103" width="81" height="28" as="geometry"/>
                </mxCell>
                <mxCell id="TK9_CK5o48mZlI4PwYxN-27" value="&lt;b&gt;Menu [M]&lt;/b&gt;&amp;nbsp;I &lt;b&gt;Verkbeiðnir[V]&lt;/b&gt; I &lt;b&gt;Fasteignir [F]&lt;/b&gt; I &lt;b&gt;Verktakar[V]&lt;/b&gt; I&lt;br&gt;&lt;div style=&quot;text-align: left&quot;&gt;&lt;b&gt;Verkbeiðnir&lt;/b&gt;&lt;span&gt;:&lt;/span&gt;&lt;/div&gt;&lt;div style=&quot;text-align: left&quot;&gt;&lt;b&gt;&lt;span&gt;Lokaðar verkbeiðnir:&lt;/span&gt;&lt;/b&gt;&lt;/div&gt;&lt;div style=&quot;text-align: left&quot;&gt;verkbeiðnir A [1]&lt;/div&gt;&lt;div style=&quot;text-align: left&quot;&gt;Verkbeiðnir B [2]&lt;/div&gt;&lt;div style=&quot;text-align: left&quot;&gt;&lt;br&gt;&lt;/div&gt;" style="html=1;fontSize=12;fillColor=#FFFFCC;" parent="8ZErG4yBXKm2X5zu9cKU-1" vertex="1">
                    <mxGeometry x="305" y="3263" width="345" height="91" as="geometry"/>
                </mxCell>
                <mxCell id="TK9_CK5o48mZlI4PwYxN-28" value="&lt;font style=&quot;font-size: 12px&quot;&gt;Enter ---&amp;gt; [B]&amp;nbsp;&lt;/font&gt;" style="text;html=1;align=center;verticalAlign=middle;resizable=0;points=[];autosize=1;strokeColor=none;fillColor=none;fontSize=18;" parent="8ZErG4yBXKm2X5zu9cKU-1" vertex="1">
                    <mxGeometry x="406" y="3232" width="83" height="28" as="geometry"/>
                </mxCell>
                <mxCell id="TK9_CK5o48mZlI4PwYxN-29" value="&lt;b&gt;Menu [M]&lt;/b&gt;&amp;nbsp;I &lt;b&gt;Verkbeiðnir[V]&lt;/b&gt; I &lt;b&gt;Fasteignir [F]&lt;/b&gt; I &lt;b&gt;Verktakar[V]&lt;/b&gt; I&lt;br&gt;&lt;div style=&quot;text-align: left&quot;&gt;&lt;b&gt;Verkbeiðnir&lt;/b&gt;&lt;span&gt;:&lt;/span&gt;&lt;/div&gt;&lt;div style=&quot;text-align: left&quot;&gt;&lt;b&gt;&lt;span&gt;Lokaðar verkbeiðnir:&lt;/span&gt;&lt;/b&gt;&lt;/div&gt;&lt;div style=&quot;text-align: left&quot;&gt;&lt;b&gt;&lt;span&gt;Verkbeiðni A:&lt;/span&gt;&lt;/b&gt;&lt;/div&gt;&lt;div style=&quot;text-align: left&quot;&gt;loka [L]&lt;/div&gt;&lt;div style=&quot;text-align: left&quot;&gt;Opna [O]&lt;/div&gt;&lt;span style=&quot;color: rgba(0 , 0 , 0 , 0) ; font-family: monospace ; font-size: 0px&quot;&gt;%3CmxGraphModel%3E%3Croot%3E%3CmxCell%20id%3D%220%22%2F%3E%3CmxCell%20id%3D%221%22%20parent%3D%220%22%2F%3E%3CmxCell%20id%3D%222%22%20value%3D%22%26lt%3Bfont%20style%3D%26quot%3Bfont-size%3A%2012px%26quot%3B%26gt%3BEnter%20---%26amp%3Bgt%3B%20%5BA%5D%26amp%3Bnbsp%3B%26lt%3B%2Ffont%26gt%3B%22%20style%3D%22text%3Bhtml%3D1%3Balign%3Dcenter%3BverticalAlign%3Dmiddle%3Bresizable%3D0%3Bpoints%3D%5B%5D%3Bautosize%3D1%3BstrokeColor%3Dnone%3BfillColor%3Dnone%3BfontSize%3D18%3B%22%20vertex%3D%221%22%20parent%3D%221%22%3E%3CmxGeometry%20x%3D%222223%22%20y%3D%221777%22%20width%3D%2283%22%20height%3D%2228%22%20as%3D%22geometry%22%2F%3E%3C%2FmxCell%3E%3C%2Froot%3E%3C%&lt;br&gt;&lt;/span&gt;" style="html=1;fontSize=12;fillColor=#FFFFCC;" parent="8ZErG4yBXKm2X5zu9cKU-1" vertex="1">
                    <mxGeometry x="719" y="3263" width="345" height="104" as="geometry"/>
                </mxCell>
                <mxCell id="TK9_CK5o48mZlI4PwYxN-30" value="&lt;b&gt;Menu [M]&lt;/b&gt;&amp;nbsp;I &lt;b&gt;Verkbeiðnir[V]&lt;/b&gt; I &lt;b&gt;Fasteignir [F]&lt;/b&gt; I &lt;b&gt;Verktakar[V]&lt;/b&gt; I&lt;br&gt;&lt;div style=&quot;text-align: left&quot;&gt;&lt;b&gt;Verkbeiðnir&lt;/b&gt;&lt;span&gt;:&lt;/span&gt;&lt;/div&gt;&lt;div style=&quot;text-align: left&quot;&gt;&lt;b&gt;&lt;span&gt;Komandi verkefni:&lt;/span&gt;&lt;/b&gt;&lt;/div&gt;&lt;div style=&quot;text-align: left&quot;&gt;Verkefni A [1]&lt;/div&gt;&lt;div style=&quot;text-align: left&quot;&gt;Verkefni B [2]&lt;/div&gt;&lt;div style=&quot;text-align: left&quot;&gt;&lt;br&gt;&lt;/div&gt;" style="html=1;fontSize=12;fillColor=#FFFFCC;" parent="8ZErG4yBXKm2X5zu9cKU-1" vertex="1">
                    <mxGeometry x="305" y="3393" width="345" height="91" as="geometry"/>
                </mxCell>
                <mxCell id="TK9_CK5o48mZlI4PwYxN-31" value="&lt;font style=&quot;font-size: 12px&quot;&gt;Enter ---&amp;gt; [C]&amp;nbsp;&lt;/font&gt;" style="text;html=1;align=center;verticalAlign=middle;resizable=0;points=[];autosize=1;strokeColor=none;fillColor=none;fontSize=18;" parent="8ZErG4yBXKm2X5zu9cKU-1" vertex="1">
                    <mxGeometry x="414" y="3359" width="83" height="28" as="geometry"/>
                </mxCell>
                <mxCell id="TK9_CK5o48mZlI4PwYxN-32" value="&lt;b&gt;Menu [M]&lt;/b&gt;&amp;nbsp;I &lt;b&gt;Verkbeiðnir[V]&lt;/b&gt; I &lt;b&gt;Fasteignir [F]&lt;/b&gt; I &lt;b&gt;Verktakar[V]&lt;/b&gt; I&lt;br&gt;&lt;div style=&quot;text-align: left&quot;&gt;&lt;b&gt;Verkbeiðnir&lt;/b&gt;&lt;span&gt;:&lt;/span&gt;&lt;/div&gt;&lt;div style=&quot;font-weight: bold ; text-align: left&quot;&gt;&lt;b&gt;Skrá verkbeiðni:&lt;/b&gt;&lt;/div&gt;&lt;div style=&quot;text-align: left&quot;&gt;upl A [1]&lt;/div&gt;&lt;div style=&quot;text-align: left&quot;&gt;upl B [2]&lt;/div&gt;" style="html=1;fontSize=12;fillColor=#FFFFCC;" parent="8ZErG4yBXKm2X5zu9cKU-1" vertex="1">
                    <mxGeometry x="305" y="3521" width="345" height="91" as="geometry"/>
                </mxCell>
                <mxCell id="TK9_CK5o48mZlI4PwYxN-33" value="&lt;font style=&quot;font-size: 12px&quot;&gt;Enter ---&amp;gt; [D]&amp;nbsp;&lt;/font&gt;" style="text;html=1;align=center;verticalAlign=middle;resizable=0;points=[];autosize=1;strokeColor=none;fillColor=none;fontSize=18;" parent="8ZErG4yBXKm2X5zu9cKU-1" vertex="1">
                    <mxGeometry x="414" y="3488" width="83" height="28" as="geometry"/>
                </mxCell>
                <mxCell id="TK9_CK5o48mZlI4PwYxN-34" value="&lt;b&gt;Menu [M]&lt;/b&gt;&amp;nbsp;I &lt;b&gt;Verkbeiðnir[V]&lt;/b&gt; I &lt;b&gt;Fasteignir [F]&lt;/b&gt; I &lt;b&gt;Verktakar[V]&lt;/b&gt; I&lt;br&gt;&lt;div style=&quot;text-align: left&quot;&gt;&lt;b&gt;Verkbeiðnir&lt;/b&gt;&lt;span&gt;:&lt;/span&gt;&lt;/div&gt;&lt;b&gt;&lt;div style=&quot;text-align: left&quot;&gt;&lt;b&gt;Útistandandi verkbeiðnir&lt;/b&gt;&lt;b&gt;:&lt;/b&gt;&lt;/div&gt;&lt;/b&gt;&lt;div style=&quot;text-align: left&quot;&gt;&lt;div&gt;verkbeiðnir A [1]&lt;/div&gt;&lt;div&gt;Verkbeiðnir B [2]&lt;/div&gt;&lt;/div&gt;" style="html=1;fontSize=12;fillColor=#FFFFCC;" parent="8ZErG4yBXKm2X5zu9cKU-1" vertex="1">
                    <mxGeometry x="305" y="3651" width="345" height="91" as="geometry"/>
                </mxCell>
                <mxCell id="TK9_CK5o48mZlI4PwYxN-35" value="&lt;font style=&quot;font-size: 12px&quot;&gt;Enter ---&amp;gt; [1]&amp;nbsp;&lt;/font&gt;" style="text;html=1;align=center;verticalAlign=middle;resizable=0;points=[];autosize=1;strokeColor=none;fillColor=none;fontSize=18;" parent="8ZErG4yBXKm2X5zu9cKU-1" vertex="1">
                    <mxGeometry x="828" y="3235" width="81" height="28" as="geometry"/>
                </mxCell>
                <mxCell id="TK9_CK5o48mZlI4PwYxN-36" value="&lt;b&gt;Menu [M]&lt;/b&gt;&amp;nbsp;I &lt;b&gt;Verkbeiðnir[V]&lt;/b&gt; I &lt;b&gt;Fasteignir [F]&lt;/b&gt; I &lt;b&gt;Verktakar[V]&lt;/b&gt; I&lt;br&gt;&lt;div style=&quot;text-align: left&quot;&gt;&lt;b&gt;Verkbeiðnir&lt;/b&gt;&lt;span&gt;:&lt;/span&gt;&lt;/div&gt;&lt;div style=&quot;text-align: left&quot;&gt;&lt;b&gt;&lt;span&gt;Útistandandi verkbeiðnir:&lt;/span&gt;&lt;/b&gt;&lt;/div&gt;&lt;div style=&quot;text-align: left&quot;&gt;&lt;b&gt;&lt;span&gt;Verkbeiðni A:&lt;/span&gt;&lt;/b&gt;&lt;/div&gt;&lt;div style=&quot;text-align: left&quot;&gt;loka [L]&lt;/div&gt;&lt;div style=&quot;text-align: left&quot;&gt;Opna [O]&lt;/div&gt;&lt;span style=&quot;color: rgba(0 , 0 , 0 , 0) ; font-family: monospace ; font-size: 0px&quot;&gt;%3CmxGraphModel%3E%3Croot%3E%3CmxCell%20id%3D%220%22%2F%3E%3CmxCell%20id%3D%221%22%20parent%3D%220%22%2F%3E%3CmxCell%20id%3D%222%22%20value%3D%22%26lt%3Bfont%20style%3D%26quot%3Bfont-size%3A%2012px%26quot%3B%26gt%3BEnter%20---%26amp%3Bgt%3B%20%5BA%5D%26amp%3Bnbsp%3B%26lt%3B%2Ffont%26gt%3B%22%20style%3D%22text%3Bhtml%3D1%3Balign%3Dcenter%3BverticalAlign%3Dmiddle%3Bresizable%3D0%3Bpoints%3D%5B%5D%3Bautosize%3D1%3BstrokeColor%3Dnone%3BfillColor%3Dnone%3BfontSize%3D18%3B%22%20vertex%3D%221%22%20parent%3D%221%22%3E%3CmxGeometry%20x%3D%222223%22%20y%3D%221777%22%20width%3D%2283%22%20height%3D%2228%22%20as%3D%22geometry%22%2F%3E%3C%2FmxCell%3E%3C%2Froot%3E%3C%&lt;br&gt;&lt;/span&gt;" style="html=1;fontSize=12;fillColor=#FFFFCC;" parent="8ZErG4yBXKm2X5zu9cKU-1" vertex="1">
                    <mxGeometry x="696" y="3649" width="345" height="104" as="geometry"/>
                </mxCell>
                <mxCell id="TK9_CK5o48mZlI4PwYxN-37" value="&lt;font style=&quot;font-size: 12px&quot;&gt;Enter ---&amp;gt; [1]&amp;nbsp;&lt;/font&gt;" style="text;html=1;align=center;verticalAlign=middle;resizable=0;points=[];autosize=1;strokeColor=none;fillColor=none;fontSize=18;" parent="8ZErG4yBXKm2X5zu9cKU-1" vertex="1">
                    <mxGeometry x="805" y="3621" width="81" height="28" as="geometry"/>
                </mxCell>
                <mxCell id="TK9_CK5o48mZlI4PwYxN-38" value="&lt;font style=&quot;font-size: 12px&quot;&gt;Enter ---&amp;gt; [E]&amp;nbsp;&lt;/font&gt;" style="text;html=1;align=center;verticalAlign=middle;resizable=0;points=[];autosize=1;strokeColor=none;fillColor=none;fontSize=18;" parent="8ZErG4yBXKm2X5zu9cKU-1" vertex="1">
                    <mxGeometry x="414" y="3617" width="83" height="28" as="geometry"/>
                </mxCell>
                <mxCell id="TK9_CK5o48mZlI4PwYxN-39" value="&lt;b&gt;Menu [M]&lt;/b&gt;&amp;nbsp;I &lt;b&gt;Verkbeiðnir[V]&lt;/b&gt; I &lt;b&gt;Fasteignir [F]&lt;/b&gt; I &lt;b&gt;Verktakar[V]&lt;/b&gt; I&lt;br&gt;&lt;div style=&quot;text-align: left&quot;&gt;&lt;b&gt;Verktakar&lt;/b&gt;&lt;span&gt;:&lt;/span&gt;&lt;/div&gt;&lt;span&gt;&lt;div style=&quot;text-align: left&quot;&gt;&lt;span&gt;&lt;b&gt;Skoða nýja verktaka&lt;/b&gt;&lt;/span&gt;&lt;b&gt;&amp;nbsp;[A]&lt;/b&gt;&lt;/div&gt;&lt;/span&gt;&lt;div style=&quot;text-align: left&quot;&gt;&lt;span style=&quot;text-align: center&quot;&gt;&lt;b&gt;Yfirlit&amp;nbsp; skráðra Verktaka [B]&lt;/b&gt;&lt;/span&gt;&lt;br&gt;&lt;/div&gt;" style="html=1;fontSize=12;fillColor=#FFFFCC;" parent="8ZErG4yBXKm2X5zu9cKU-1" vertex="1">
                    <mxGeometry x="-134" y="3800" width="421" height="92" as="geometry"/>
                </mxCell>
                <mxCell id="TK9_CK5o48mZlI4PwYxN-40" value="&lt;font style=&quot;font-size: 12px&quot;&gt;Enter ---&amp;gt; Verktakar [C]&amp;nbsp;&lt;/font&gt;" style="text;html=1;align=center;verticalAlign=middle;resizable=0;points=[];autosize=1;strokeColor=none;fillColor=none;fontSize=18;" parent="8ZErG4yBXKm2X5zu9cKU-1" vertex="1">
                    <mxGeometry x="-110" y="3747" width="137" height="28" as="geometry"/>
                </mxCell>
                <mxCell id="TK9_CK5o48mZlI4PwYxN-41" value="&lt;b&gt;Menu [M]&lt;/b&gt;&amp;nbsp;I &lt;b&gt;Verkbeiðnir[V]&lt;/b&gt; I &lt;b&gt;Fasteignir [F]&lt;/b&gt; I &lt;b&gt;Verktakar[V]&lt;/b&gt; I&lt;br&gt;&lt;div style=&quot;text-align: left&quot;&gt;&lt;b&gt;Verktakar&lt;/b&gt;&lt;span&gt;:&lt;/span&gt;&lt;/div&gt;&lt;span&gt;&lt;div style=&quot;text-align: left&quot;&gt;&lt;span&gt;&lt;b&gt;Skoða nýja verktaka:&lt;/b&gt;&lt;/span&gt;&lt;/div&gt;&lt;div style=&quot;text-align: left&quot;&gt;&lt;span&gt;Verktaki A [1]&lt;/span&gt;&lt;/div&gt;&lt;div style=&quot;text-align: left&quot;&gt;&lt;span&gt;Verktaki B [2]&lt;/span&gt;&lt;/div&gt;&lt;/span&gt;&lt;div style=&quot;text-align: left&quot;&gt;&lt;br&gt;&lt;/div&gt;" style="html=1;fontSize=12;fillColor=#FFFFCC;" parent="8ZErG4yBXKm2X5zu9cKU-1" vertex="1">
                    <mxGeometry x="317" y="3795" width="421" height="92" as="geometry"/>
                </mxCell>
                <mxCell id="TK9_CK5o48mZlI4PwYxN-42" value="&lt;font style=&quot;font-size: 12px&quot;&gt;Enter ---&amp;gt; [A]&amp;nbsp;&lt;/font&gt;" style="text;html=1;align=center;verticalAlign=middle;resizable=0;points=[];autosize=1;strokeColor=none;fillColor=none;fontSize=18;" parent="8ZErG4yBXKm2X5zu9cKU-1" vertex="1">
                    <mxGeometry x="414" y="3765" width="83" height="28" as="geometry"/>
                </mxCell>
                <mxCell id="TK9_CK5o48mZlI4PwYxN-43" value="&lt;font style=&quot;font-size: 12px&quot;&gt;Enter ---&amp;gt; [1]&amp;nbsp;&lt;/font&gt;" style="text;html=1;align=center;verticalAlign=middle;resizable=0;points=[];autosize=1;strokeColor=none;fillColor=none;fontSize=18;" parent="8ZErG4yBXKm2X5zu9cKU-1" vertex="1">
                    <mxGeometry x="816" y="3765" width="81" height="28" as="geometry"/>
                </mxCell>
                <mxCell id="TK9_CK5o48mZlI4PwYxN-44" value="&lt;b&gt;Menu [M]&lt;/b&gt;&amp;nbsp;I &lt;b&gt;Verkbeiðnir[V]&lt;/b&gt; I &lt;b&gt;Fasteignir [F]&lt;/b&gt; I &lt;b&gt;Verktakar[V]&lt;/b&gt; I&lt;br&gt;&lt;div style=&quot;text-align: left&quot;&gt;&lt;b&gt;Verktakar&lt;/b&gt;&lt;span&gt;:&lt;/span&gt;&lt;/div&gt;&lt;span&gt;&lt;div style=&quot;text-align: left&quot;&gt;&lt;span&gt;&lt;b&gt;Skoða nýja verktaka:&lt;/b&gt;&lt;/span&gt;&lt;/div&gt;&lt;div style=&quot;text-align: left&quot;&gt;&lt;span&gt;&lt;b&gt;Verktaki A:&lt;/b&gt;&lt;/span&gt;&lt;/div&gt;&lt;/span&gt;&lt;div style=&quot;text-align: left&quot;&gt;Skrá á verk [1 ]&lt;/div&gt;" style="html=1;fontSize=12;fillColor=#FFFFCC;" parent="8ZErG4yBXKm2X5zu9cKU-1" vertex="1">
                    <mxGeometry x="754" y="3795" width="421" height="92" as="geometry"/>
                </mxCell>
                <mxCell id="TK9_CK5o48mZlI4PwYxN-45" value="&lt;b&gt;Menu [M]&lt;/b&gt;&amp;nbsp;I &lt;b&gt;Verkbeiðnir[V]&lt;/b&gt; I &lt;b&gt;Fasteignir [F]&lt;/b&gt; I &lt;b&gt;Verktakar[V]&lt;/b&gt; I&lt;br&gt;&lt;div style=&quot;text-align: left&quot;&gt;&lt;b&gt;Verktakar&lt;/b&gt;&lt;span&gt;:&lt;/span&gt;&lt;/div&gt;&lt;b&gt;&lt;div style=&quot;text-align: left&quot;&gt;&lt;b&gt;Yfirlit&amp;nbsp; skráðra Verktaka&lt;/b&gt;&lt;b&gt;:&lt;/b&gt;&lt;/div&gt;&lt;/b&gt;&lt;span&gt;&lt;div style=&quot;text-align: left&quot;&gt;&lt;span&gt;Verktaki A [1]&lt;/span&gt;&lt;/div&gt;&lt;div style=&quot;text-align: left&quot;&gt;&lt;span&gt;Verktaki B [2]&lt;/span&gt;&lt;/div&gt;&lt;/span&gt;&lt;div style=&quot;text-align: left&quot;&gt;&lt;br&gt;&lt;/div&gt;" style="html=1;fontSize=12;fillColor=#FFFFCC;" parent="8ZErG4yBXKm2X5zu9cKU-1" vertex="1">
                    <mxGeometry x="322" y="3918" width="421" height="92" as="geometry"/>
                </mxCell>
                <mxCell id="TK9_CK5o48mZlI4PwYxN-46" value="&lt;font style=&quot;font-size: 12px&quot;&gt;Enter ---&amp;gt; [B]&amp;nbsp;&lt;/font&gt;" style="text;html=1;align=center;verticalAlign=middle;resizable=0;points=[];autosize=1;strokeColor=none;fillColor=none;fontSize=18;" parent="8ZErG4yBXKm2X5zu9cKU-1" vertex="1">
                    <mxGeometry x="417" y="3887" width="83" height="28" as="geometry"/>
                </mxCell>
                <mxCell id="TK9_CK5o48mZlI4PwYxN-47" value="&lt;font style=&quot;font-size: 12px&quot;&gt;Enter ---&amp;gt; [1]&amp;nbsp;&lt;/font&gt;" style="text;html=1;align=center;verticalAlign=middle;resizable=0;points=[];autosize=1;strokeColor=none;fillColor=none;fontSize=18;" parent="8ZErG4yBXKm2X5zu9cKU-1" vertex="1">
                    <mxGeometry x="816" y="3888" width="81" height="28" as="geometry"/>
                </mxCell>
                <mxCell id="TK9_CK5o48mZlI4PwYxN-48" value="&lt;b&gt;Menu [M]&lt;/b&gt;&amp;nbsp;I &lt;b&gt;Verkbeiðnir[V]&lt;/b&gt; I &lt;b&gt;Fasteignir [F]&lt;/b&gt; I &lt;b&gt;Verktakar[V]&lt;/b&gt; I&lt;br&gt;&lt;div style=&quot;text-align: left&quot;&gt;&lt;b&gt;Verktakar&lt;/b&gt;&lt;span&gt;:&lt;/span&gt;&lt;/div&gt;&lt;span&gt;&lt;div style=&quot;text-align: left&quot;&gt;&lt;span&gt;&lt;b&gt;Skoða nýja verktaka:&lt;/b&gt;&lt;/span&gt;&lt;/div&gt;&lt;div style=&quot;text-align: left&quot;&gt;&lt;span&gt;&lt;b&gt;Verktaki A:&lt;/b&gt;&lt;/span&gt;&lt;/div&gt;&lt;/span&gt;&lt;div style=&quot;text-align: left&quot;&gt;Skrá á verk [1 ]&lt;/div&gt;" style="html=1;fontSize=12;fillColor=#FFFFCC;" parent="8ZErG4yBXKm2X5zu9cKU-1" vertex="1">
                    <mxGeometry x="754" y="3918" width="421" height="92" as="geometry"/>
                </mxCell>
            </root>
        </mxGraphModel>
    </diagram>
</mxfile>